<svg width="106" height="106" viewBox="0 0 106 106" fill="none" xmlns="http://www.w3.org/2000/svg">
<path d="M53.0009 0C23.7319 0 0.000976562 23.731 0.000976562 53C0.000976562 82.2686 23.7319 106 53.0009 106C82.2698 106 106 82.2683 106 53C106.001 23.731 82.2698 0 53.0009 0ZM80.9883 77.3329L76.7447 81.5773C75.9871 82.3339 73.7686 82.806 73.6974 82.806C60.2725 82.9231 47.3464 77.6499 37.8491 68.1516C28.3257 58.6228 23.0464 45.6505 23.1882 32.1804C23.1882 32.1743 23.674 30.0194 24.431 29.2697L28.6744 25.0256C30.2272 23.4656 33.2101 22.7606 35.2996 23.4597L36.1923 23.7574C38.2757 24.4559 40.4632 26.7595 41.0388 28.8819L43.1734 36.7163C43.7491 38.8448 42.9726 41.8729 41.4203 43.4257L38.5868 46.2596C41.3687 56.5583 49.4493 64.6405 59.7498 67.4291L62.5821 64.5946C64.1421 63.0346 67.1691 62.2588 69.293 62.8336L77.1264 64.9758C79.2491 65.5591 81.5524 67.7328 82.2506 69.8156L82.5483 70.7211C83.2404 72.8048 82.5409 75.787 80.9883 77.3329Z" fill="#2B2829"/>
</svg>
