<svg width="268" height="52" viewBox="0 0 268 52" fill="none" xmlns="http://www.w3.org/2000/svg">
<path d="M26.756 2.88824C24.6733 6.00748 22.5882 9.12671 20.4982 12.2651H26.756V21.9852C26.756 30.9302 22.886 36.564 13.4861 36.564C4.08619 36.564 0 30.9302 0 21.9852V0.00415039H9.50562V23.0793C9.50562 26.1721 10.4449 28.382 13.4861 28.382C16.5273 28.382 17.5699 26.1721 17.5699 23.0793V0.00415039H26.7488L26.756 2.88824Z" fill="#D55955"/>
<path d="M46.082 0.00463867H32.5911V2.6056C33.2621 3.61175 33.9339 4.61791 34.6065 5.62406C35.577 7.0781 36.5475 8.53374 37.518 9.99099C37.9841 10.6868 38.4477 11.3826 38.9161 12.0785C38.9539 12.1313 38.9948 12.1818 39.0386 12.2296V12.2656H32.5935V21.988C32.5935 22.2688 32.5935 22.5447 32.5935 22.8182C32.531 31.281 31.3515 36.5693 22.2471 36.5693H42.1039V24.5194H46.0844C53.6034 24.5194 60.4593 20.7068 60.4593 11.9273C60.4569 2.87673 53.822 0.00463867 46.082 0.00463867ZM45.64 17.0141H42.1015V7.51719H45.64C49.1784 7.51719 51.1651 8.7313 51.1651 11.9345C51.1651 15.1377 49.3995 17.0141 45.64 17.0141Z" fill="#D55955"/>
<path d="M3.12044 43.9255V50.4783H8.47982V43.9255H10.3536V50.0872C10.3536 50.8262 10.2158 51.3293 9.94038 51.5964C9.66492 51.8636 9.13483 51.9971 8.3501 51.9971H3.24296C2.46304 51.9971 1.93374 51.8636 1.65508 51.5964C1.37642 51.3301 1.2395 50.8262 1.2395 50.0872V43.9255H3.12044Z" fill="white"/>
<path d="M15.259 51.9971V43.9255H16.5514L22.2399 48.6836C22.4345 48.8419 22.6051 48.9883 22.754 49.1299C22.8972 49.2655 23.032 49.4097 23.1576 49.5617C23.1287 49.1083 23.1071 48.7867 23.0975 48.602C23.0879 48.4172 23.0807 48.2661 23.0807 48.1653V43.9255H24.7623V51.9971H23.4771L17.5436 47.0112C17.3994 46.8816 17.2745 46.7712 17.1688 46.6657C17.064 46.5671 16.9645 46.463 16.8709 46.3537C16.895 46.5937 16.9142 46.8336 16.9262 47.0592C16.9382 47.2847 16.9478 47.4743 16.9478 47.635V51.9971H15.259Z" fill="white"/>
<path d="M29.6699 51.9971V43.9255H31.5509V51.9971H29.6699Z" fill="white"/>
<path d="M36.2954 45.8331C36.2954 45.0988 36.4331 44.5974 36.7086 44.3286C36.984 44.0599 37.5141 43.9255 38.2989 43.9255H44.2468C45.0315 43.9255 45.5624 44.0599 45.8395 44.3286C46.1165 44.5974 46.2535 45.0988 46.2502 45.8331V50.0872C46.2502 50.8262 46.1133 51.3293 45.8395 51.5964C45.5656 51.8636 45.0347 51.9971 44.2468 51.9971H38.2989C37.5141 51.9971 36.984 51.8636 36.7086 51.5964C36.4331 51.3293 36.2954 50.8262 36.2954 50.0872V45.8331ZM38.1716 50.4783H44.3741V45.3676H38.1716V50.4783Z" fill="white"/>
<path d="M50.98 51.9971V43.9255H52.2652L57.9536 48.6836C58.1482 48.8419 58.3188 48.9883 58.4677 49.1299C58.6109 49.2655 58.7457 49.4097 58.8713 49.5617C58.8425 49.1083 58.8208 48.7867 58.8112 48.602C58.8016 48.4172 58.7968 48.2661 58.7968 48.1653V43.9255H60.4784V51.9971H59.1932L53.2597 47.0112C53.118 46.8816 52.993 46.7712 52.8849 46.6657C52.7793 46.5672 52.6791 46.463 52.5847 46.3537C52.6087 46.6033 52.6279 46.8384 52.6423 47.0592C52.6543 47.2799 52.6615 47.4743 52.6615 47.635V51.9971H50.98Z" fill="white"/>
<path d="M81.4093 51.9856H83.4199V-2.67029e-05H81.4093V51.9856Z" fill="#D55955"/>
<path d="M94.499 25.1069V0.0090332H119.912V4.40235H100.348V11.0031H110.918V15.586H100.348V25.1069H94.499Z" fill="white"/>
<path d="M126.641 5.94518C126.641 3.66574 127.069 2.10612 127.924 1.26633C128.779 0.426533 130.427 0.00743816 132.868 0.00903776H151.365C153.806 0.00903776 155.454 0.428133 156.311 1.26633C157.168 2.10452 157.595 3.66414 157.594 5.94518V19.1707C157.594 21.4662 157.166 23.0298 156.311 23.8616C155.456 24.6934 153.807 25.1085 151.365 25.1069H132.868C130.427 25.1069 128.779 24.6918 127.924 23.8616C127.069 23.0314 126.641 21.4678 126.641 19.1707V5.94518ZM132.488 20.3824H151.768V4.49594H132.488V20.3824Z" fill="white"/>
<path d="M164.248 25.1069L178.462 0.0090332H184.095L198.508 25.1069H191.948L188.928 19.6218H173.001L170.075 25.1069H164.248ZM175.492 15.0869H186.499L181.078 4.87744L175.492 15.0869Z" fill="white"/>
<path d="M94.3838 51.99V41.9509H104.55V43.7145H96.7332V46.3538H100.963V48.187H96.7332V51.9948L94.3838 51.99Z" fill="white"/>
<path d="M106.972 51.9901V41.9509H115.569C116.37 41.9509 116.948 42.1045 117.304 42.4116C117.659 42.7187 117.839 43.2146 117.842 43.8992V46.2555C117.842 46.9321 117.662 47.4256 117.304 47.7359C116.945 48.0462 116.367 48.2014 115.569 48.2014H114.255L118.887 51.9901H115.524L111.49 48.2014H109.278V51.9901H106.972ZM114.531 43.6905H109.278V46.4834H114.536C114.826 46.5111 115.117 46.4491 115.37 46.3059C115.452 46.226 115.515 46.1286 115.553 46.0209C115.592 45.9132 115.606 45.7981 115.593 45.6844V44.4847C115.605 44.3725 115.591 44.2591 115.552 44.1531C115.513 44.0471 115.451 43.9512 115.37 43.8729C115.116 43.7272 114.823 43.6635 114.531 43.6905Z" fill="white"/>
<path d="M122.098 51.9901V41.9509H124.438V51.9901H122.098Z" fill="white"/>
<path d="M129.086 51.9901V41.9509H139.375V43.6617H131.426V45.9028H136.065V47.6135H131.426V50.1017H139.469V51.9901H129.086Z" fill="white"/>
<path d="M143.281 51.9904V41.9513H144.879L151.953 47.8682C152.194 48.065 152.407 48.2521 152.59 48.4249C152.769 48.5932 152.938 48.7727 153.094 48.9623C153.056 48.3985 153.032 48.0026 153.017 47.7626C153.003 47.5227 153.001 47.3475 153.001 47.2204V41.9417H155.1V51.9808H153.503L146.125 45.7807C145.948 45.6223 145.792 45.4784 145.659 45.3512C145.528 45.2288 145.404 45.0991 145.287 44.9625C145.319 45.2824 145.343 45.5752 145.359 45.8407C145.376 46.1166 145.383 46.3566 145.383 46.5605V51.9832L143.281 51.9904Z" fill="white"/>
<path d="M159.739 51.9901V41.9509H166.21C168.055 41.9509 169.473 42.382 170.465 43.2442C171.456 44.1064 171.952 45.3285 171.954 46.9105C171.967 47.7887 171.768 48.6571 171.373 49.4419C171.003 50.1724 170.436 50.7856 169.737 51.2127C169.235 51.5085 168.683 51.7094 168.108 51.8053C167.284 51.943 166.448 52.0048 165.612 51.9901H159.739ZM162.079 50.1017H165.103C166.712 50.1017 167.853 49.8514 168.526 49.3507C169.199 48.85 169.534 48.0238 169.533 46.8721C169.533 45.8452 169.254 45.0678 168.697 44.5399C168.139 44.012 167.315 43.7481 166.225 43.7481H162.079V50.1017Z" fill="white"/>
<path d="M182.596 44.3263C182.596 43.4146 182.767 42.7907 183.108 42.4548C183.451 42.1189 184.11 41.9509 185.087 41.9509H192.484C193.461 41.9509 194.12 42.1189 194.463 42.4548C194.807 42.7907 194.975 43.4146 194.975 44.3263V49.6171C194.975 50.536 194.804 51.1599 194.463 51.4934C194.122 51.8269 193.461 51.9901 192.484 51.9901H185.087C184.11 51.9901 183.451 51.8245 183.108 51.4934C182.764 51.1623 182.596 50.5336 182.596 49.6171V44.3263ZM184.934 50.1017H192.647V43.7481H184.934V50.1017Z" fill="white"/>
<path d="M199.414 51.99V41.9509H209.58V43.7145H201.763V46.3538H205.994V48.187H201.763V51.9948L199.414 51.99Z" fill="white"/>
<path d="M217.138 51.9901L222.824 41.9509H225.065L230.83 51.9901H228.207L227.006 49.797H220.635L219.465 51.9901H217.138ZM221.635 47.9831H226.026L223.864 43.9041L221.635 47.9831Z" fill="white"/>
<path d="M241.943 43.7147H235.361V45.8741H241.64C242.622 45.8741 243.286 46.0421 243.632 46.378C243.978 46.7139 244.151 47.3378 244.151 48.2496V49.6268C244.151 50.5386 243.978 51.1624 243.632 51.4984C243.286 51.8343 242.623 51.9998 241.64 51.9998H235.419C234.436 51.9998 233.773 51.8343 233.427 51.4984C233.081 51.1624 232.908 50.5386 232.908 49.6268V49.3509L234.972 48.9238V50.1115H242.075V47.8225H235.808C234.832 47.8225 234.173 47.6545 233.831 47.3186C233.49 46.9827 233.317 46.3588 233.317 45.447V44.3361C233.317 43.4243 233.49 42.8005 233.831 42.4646C234.172 42.1287 234.832 41.9607 235.808 41.9607H241.515C242.459 41.9607 243.11 42.1239 243.468 42.4406C243.826 42.7573 244.006 43.338 244.006 44.161V44.3697L241.943 44.8496V43.7147Z" fill="white"/>
<path d="M248.501 51.9901V41.9509H250.841V51.9901H248.501Z" fill="white"/>
<path d="M253.567 51.9901L259.253 41.9509H261.507L267.272 51.9901H264.649L263.448 49.797H257.077L255.907 51.9901H253.567ZM258.067 47.9831H262.468L260.306 43.9041L258.067 47.9831Z" fill="white"/>
</svg>
