<svg width="19" height="19" viewBox="0 0 19 19" fill="none" xmlns="http://www.w3.org/2000/svg">
<path d="M9.49805 0.269719C5.71576 0.269719 2.12409 -0.066739 0.752215 3.45409C0.185549 4.90826 0.267841 6.7968 0.267841 9.50097C0.267841 11.8739 0.191799 14.1041 0.752215 15.5468C2.12097 19.0697 5.7418 18.7322 9.49597 18.7322C13.1178 18.7322 16.8522 19.1093 18.2408 15.5468C18.8085 14.0781 18.7251 12.2176 18.7251 9.50097C18.7251 5.89472 18.9241 3.56659 17.1751 1.81868C15.4043 0.0478442 13.0095 0.269719 9.49388 0.269719H9.49805ZM8.67097 1.93326C16.5605 1.92076 17.5647 1.04368 17.0105 13.2281C16.8137 17.5374 13.5324 17.0645 9.49909 17.0645C2.14492 17.0645 1.93347 16.8541 1.93347 9.4968C1.93347 2.05409 2.5168 1.93743 8.67097 1.93118V1.93326ZM14.4251 3.46555C13.8137 3.46555 13.3178 3.96139 13.3178 4.57284C13.3178 5.1843 13.8137 5.68014 14.4251 5.68014C15.0366 5.68014 15.5324 5.1843 15.5324 4.57284C15.5324 3.96139 15.0366 3.46555 14.4251 3.46555ZM9.49805 4.76034C6.88034 4.76034 4.75847 6.88326 4.75847 9.50097C4.75847 12.1187 6.88034 14.2406 9.49805 14.2406C12.1158 14.2406 14.2366 12.1187 14.2366 9.50097C14.2366 6.88326 12.1158 4.76034 9.49805 4.76034ZM9.49805 6.42389C13.5658 6.42389 13.571 12.5781 9.49805 12.5781C5.43138 12.5781 5.42513 6.42389 9.49805 6.42389Z" fill="white"/>
</svg>
