<svg width="9" height="9" viewBox="0 0 9 9" fill="none" xmlns="http://www.w3.org/2000/svg">
<path d="M2.05842 0.415288L1.49186 0.384403C1.3139 0.374694 1.13935 0.434159 1.00484 0.551004C0.730169 0.789522 0.290984 1.25065 0.156091 1.85155C-0.0450695 2.74753 0.265805 3.84467 1.07039 4.94181C1.87498 6.03895 3.37438 7.79437 6.02578 8.5441C6.88018 8.78569 7.55229 8.62282 8.07085 8.2911C8.48156 8.02839 8.76468 7.6067 8.86671 7.13L8.95717 6.70749C8.98592 6.5732 8.91773 6.43693 8.79298 6.37944L6.8782 5.49685C6.7539 5.43958 6.6065 5.47578 6.5229 5.58413L5.77119 6.5586C5.71441 6.63222 5.61721 6.66141 5.52944 6.63058C5.01466 6.44966 3.29029 5.72747 2.34411 3.9049C2.30308 3.82585 2.31328 3.72991 2.37149 3.66249L3.08989 2.83141C3.16329 2.74654 3.18183 2.62723 3.13773 2.5241L2.31235 0.593079C2.26841 0.490277 2.16994 0.421377 2.05842 0.415288Z" fill="white"/>
</svg>
