<svg width="25" height="25" viewBox="0 0 25 25" fill="none" xmlns="http://www.w3.org/2000/svg">
<g clip-path="url(#clip0)">
<path d="M1.56269 1.70095C-0.401896 3.74157 0.000187218 5.90928 0.000187218 12.4947C0.000187218 17.9634 -0.95398 23.4457 4.03977 24.7364C5.59915 25.1374 19.4158 25.1374 20.9731 24.7343C23.0523 24.1978 24.7439 22.5114 24.9752 19.5707C25.0075 19.1603 25.0075 5.83636 24.9741 5.41761C24.7283 2.28532 22.8002 0.480114 20.2596 0.114489C19.6773 0.0301142 19.5606 0.00511424 16.5731 -9.40897e-05C5.97623 0.00511424 3.65331 -0.466761 1.56269 1.70095Z" fill="url(#paint0_linear)"/>
<path d="M12.498 3.26972C8.71576 3.26972 5.12409 2.93326 3.75222 6.45409C3.18555 7.90826 3.26784 9.7968 3.26784 12.501C3.26784 14.8739 3.1918 17.1041 3.75222 18.5468C5.12097 22.0697 8.7418 21.7322 12.496 21.7322C16.1178 21.7322 19.8522 22.1093 21.2408 18.5468C21.8085 17.0781 21.7251 15.2176 21.7251 12.501C21.7251 8.89472 21.9241 6.56659 20.1751 4.81868C18.4043 3.04784 16.0095 3.26972 12.4939 3.26972H12.498ZM11.671 4.93326C19.5605 4.92076 20.5647 4.04368 20.0105 16.2281C19.8137 20.5374 16.5324 20.0645 12.4991 20.0645C5.14492 20.0645 4.93347 19.8541 4.93347 12.4968C4.93347 5.05409 5.5168 4.93743 11.671 4.93118V4.93326ZM17.4251 6.46555C16.8137 6.46555 16.3178 6.96139 16.3178 7.57284C16.3178 8.1843 16.8137 8.68014 17.4251 8.68014C18.0366 8.68014 18.5324 8.1843 18.5324 7.57284C18.5324 6.96139 18.0366 6.46555 17.4251 6.46555ZM12.498 7.76034C9.88034 7.76034 7.75847 9.88326 7.75847 12.501C7.75847 15.1187 9.88034 17.2406 12.498 17.2406C15.1158 17.2406 17.2366 15.1187 17.2366 12.501C17.2366 9.88326 15.1158 7.76034 12.498 7.76034ZM12.498 9.42389C16.5658 9.42389 16.571 15.5781 12.498 15.5781C8.43138 15.5781 8.42513 9.42389 12.498 9.42389Z" fill="white"/>
</g>
<defs>
<linearGradient id="paint0_linear" x1="1.61062" y1="23.4031" x2="24.8455" y2="3.29363" gradientUnits="userSpaceOnUse">
<stop stop-color="#FFDD55"/>
<stop offset="0.5" stop-color="#FF543E"/>
<stop offset="1" stop-color="#C837AB"/>
</linearGradient>
<clipPath id="clip0">
<rect width="25" height="25" fill="white"/>
</clipPath>
</defs>
</svg>
