<svg width="180" height="180" viewBox="0 0 180 180" fill="none" xmlns="http://www.w3.org/2000/svg">
<circle cx="90" cy="90" r="90" fill="#E10700"/>
<path d="M107.721 136.373C107.179 136.373 106.823 136.304 106.79 136.287C105.248 136.046 67.8121 130.138 57.8009 127.407C51.2962 125.655 45.8079 120.365 41.4714 111.708L41.2512 111.261C40.184 109.218 41.0648 106.16 41.1665 105.817L41.2173 105.696C41.9457 104.202 59.0036 68.9572 61.3921 65.0583C63.8652 61.0219 67.6935 58.8406 67.8629 58.7547L84.7514 51.266H84.9378L127.93 52.537C129.658 52.6401 130.945 53.2584 131.809 54.3748C133.3 56.2814 132.876 58.9093 132.859 59.0123L132.876 107.964C132.876 111.347 132.3 112.928 132.283 112.996L132.097 113.288C131.928 113.46 115.327 130.997 112.989 133.796C111.143 136.012 108.941 136.373 107.721 136.373Z" fill="white"/>
<path d="M104.503 119.759C89.521 119.759 42.074 110.415 39.8223 109.972L39.9109 109.529C40.5315 109.653 101.613 121.656 108.209 118.89C114.84 116.107 134.929 94.9186 135.124 94.7058L135.443 95.0072C134.61 95.876 115.089 116.497 108.369 119.298C107.642 119.617 106.312 119.759 104.503 119.759Z" fill="#E10700" stroke="#E10700"/>
<path d="M111.187 116.674L110.744 116.639C110.78 116.249 113.563 79.4221 114.131 72.4895C114.698 65.4327 117.783 63.6596 117.907 63.5887L135.496 52.2766L135.727 52.649L118.12 63.9611C118.085 63.9788 115.106 65.7341 114.556 72.5249C114.007 79.4576 111.205 116.284 111.187 116.674Z" fill="#E10700" stroke="#E10700"/>
<path d="M105.212 119.546L104.769 119.511C104.804 119.068 108.368 75.2732 109.095 70.2732C109.839 65.1845 113.261 62.259 113.421 62.1349L130.176 51.4611L130.407 51.8334L113.687 62.4895C113.669 62.5072 110.265 65.415 109.556 70.3264C108.811 75.3441 105.247 119.121 105.212 119.546Z" fill="#E10700" stroke="#E10700"/>
<path d="M43.8114 110.433L43.3682 110.398C43.3682 110.327 43.51 108.571 44.6448 105.557C45.7795 102.561 63.0314 67.6489 63.7583 66.1418C63.8292 66 66.1165 62.1525 68.191 60.8227C68.2796 60.7872 74.4144 58.0922 76.1697 57.2766C77.9073 56.4609 92.6946 49.8475 92.8187 49.7943L93.0137 50.1843C92.8896 50.2375 78.1023 56.851 76.3647 57.6666C74.6449 58.4822 68.4924 61.1595 68.4392 61.195C66.4888 62.4361 64.2016 66.2837 64.1838 66.3191C64.0065 66.6915 46.2051 102.72 45.088 105.699C43.9533 108.66 43.8114 110.415 43.8114 110.433Z" fill="#E10700" stroke="#E10700"/>
<path d="M99.8939 89.1917L99.7158 89.1755L61.0986 84.6598L61.212 84.4008L67.821 69.6881H67.9668L103.652 71.5818L103.603 71.8084L99.8939 89.1917ZM61.6818 84.3199L99.57 88.7547L103.134 71.9865L68.064 70.1251L61.6818 84.3199Z" fill="#E10700" stroke="#E10700"/>
<path d="M115.283 66.3193L61.0986 63.6952L61.1164 63.252L115.301 65.8761L115.283 66.3193Z" fill="#E10700" stroke="#E10700"/>
<path d="M100.797 132.685C100.442 132.685 100.159 132.631 100.123 132.631C98.8997 132.49 97.0203 132.277 94.999 132.046C90.921 131.603 86.2933 131.089 85.1586 130.858C82.9954 130.451 81.9671 129.44 81.9139 129.387C81.8961 129.369 80.1053 127.419 78.7224 124.883C78.3146 124.138 78.2614 123.571 78.5451 123.181C79.1302 122.401 80.85 122.72 81.0451 122.773C81.1869 122.791 97.038 124.901 100.495 125.131C102.304 125.255 102.623 125.841 102.605 126.887C102.605 127.099 102.676 130.716 102.428 131.745C102.286 132.525 101.417 132.685 100.797 132.685ZM80.0344 123.128C79.5734 123.128 79.1124 123.199 78.9174 123.465C78.6869 123.766 78.8997 124.298 79.1124 124.688C80.4777 127.17 82.2153 129.068 82.233 129.085C82.233 129.085 83.2259 130.043 85.2295 130.415C86.3465 130.628 90.9742 131.142 95.0345 131.585C97.0558 131.816 98.9352 132.011 100.176 132.17C100.212 132.17 101.825 132.436 102.02 131.638C102.251 130.646 102.18 126.922 102.18 126.887C102.198 126.142 102.127 125.699 100.478 125.575C97.0026 125.326 81.1337 123.234 80.9741 123.216C80.7968 123.181 80.4245 123.128 80.0344 123.128Z" fill="#E10700" stroke="#E10700"/>
<path d="M70.1189 127.596C70.0479 127.596 69.9593 127.596 69.8706 127.578C67.4061 127.312 57.8139 125.114 53.1507 122.33C48.5762 119.617 47.9379 116.497 47.867 116.124C47.8138 116 47.7784 115.788 47.9202 115.61C48.1507 115.327 48.7181 115.327 49.6933 115.61L64.5337 119.848C64.711 119.901 68.3458 121.249 70.0834 123.979C70.2252 124.21 71.5728 126.266 71.0231 127.171C70.8635 127.454 70.5444 127.596 70.1189 127.596ZM48.5408 115.841C48.328 115.841 48.2748 115.894 48.2748 115.894C48.2748 115.912 48.2748 115.947 48.2925 115.965L48.3103 116.036C48.3103 116.071 48.8245 119.227 53.3812 121.958C58.0089 124.706 67.4947 126.887 69.9238 127.153C70.2962 127.188 70.5444 127.135 70.633 126.958C70.9345 126.444 70.2252 125.007 69.7111 124.227C68.0621 121.639 64.4274 120.291 64.3919 120.273L49.5691 116.036C49.055 115.894 48.7358 115.841 48.5408 115.841Z" fill="#E10700" stroke="#E10700"/>
</svg>
