<svg width="180" height="180" viewBox="0 0 180 180" fill="none" xmlns="http://www.w3.org/2000/svg">
<circle cx="90" cy="90" r="90" fill="#E10700"/>
<path d="M89.932 124.748C83.0471 124.748 76.3168 122.706 70.5921 118.881C64.8675 115.056 60.4057 109.619 57.7709 103.258C55.1362 96.8975 54.4468 89.8982 55.79 83.1455C57.1332 76.3929 60.4486 70.1901 65.317 65.3218C70.1854 60.4534 76.3881 57.1379 83.1408 55.7948C89.8934 54.4516 96.8927 55.1409 103.254 57.7757C109.614 60.4105 115.051 64.8723 118.876 70.5969C122.701 76.3215 124.743 83.0518 124.743 89.9368C124.733 99.166 121.062 108.014 114.536 114.54C108.01 121.066 99.1613 124.737 89.932 124.748Z" fill="white"/>
<path d="M63.6636 60.4943C63.7081 60.4493 63.7331 60.3886 63.7331 60.3253C63.7331 60.262 63.7081 60.2012 63.6636 60.1563L61.8072 58.0893C61.7614 58.0444 61.6999 58.0193 61.6357 58.0193C61.5716 58.0193 61.5101 58.0444 61.4643 58.0893L61.2243 58.3048C61.1794 58.3506 61.1543 58.4121 61.1543 58.4762C61.1543 58.5403 61.1794 58.6019 61.2243 58.6477L63.0856 60.7147C63.1314 60.7596 63.1929 60.7847 63.257 60.7847C63.3211 60.7847 63.3827 60.7596 63.4285 60.7147L63.6636 60.4943Z" fill="white"/>
<path d="M66.8761 57.9277C66.9275 57.8896 66.9618 57.8328 66.9719 57.7697C66.982 57.7065 66.9669 57.642 66.93 57.5897L65.2941 55.3415C65.2559 55.2902 65.1992 55.2558 65.136 55.2457C65.0729 55.2357 65.0083 55.2507 64.9561 55.2876L64.6965 55.4786C64.6452 55.5168 64.6108 55.5735 64.6007 55.6367C64.5906 55.6998 64.6057 55.7644 64.6426 55.8166L66.2786 58.0453C66.2965 58.0712 66.3196 58.0932 66.3464 58.1099C66.3733 58.1266 66.4032 58.1375 66.4345 58.1421C66.4657 58.1467 66.4976 58.1449 66.528 58.1366C66.5585 58.1284 66.587 58.1139 66.6116 58.0942L66.8761 57.9277Z" fill="white"/>
<path d="M50.4828 89.9369V89.7802C50.4829 89.7161 50.4577 89.6545 50.4129 89.6087C50.368 89.5629 50.3069 89.5366 50.2428 89.5353H47.4656C47.401 89.5365 47.3395 89.5627 47.2938 89.6084C47.2482 89.6541 47.222 89.7156 47.2207 89.7802V90.1035C47.222 90.1676 47.2484 90.2286 47.2941 90.2735C47.3399 90.3184 47.4015 90.3435 47.4656 90.3435H50.2428C50.3065 90.3435 50.3675 90.3182 50.4126 90.2732C50.4576 90.2282 50.4828 90.1671 50.4828 90.1035V89.9369Z" fill="white"/>
<path d="M72.4091 50.9674L72.7044 50.8359C72.7638 50.8094 72.8312 50.8077 72.8918 50.831C72.9525 50.8542 73.0014 50.9007 73.0278 50.96L74.1574 53.4971C74.1702 53.5259 74.1772 53.557 74.178 53.5885C74.1789 53.62 74.1735 53.6513 74.1622 53.6808C74.1509 53.7102 74.1339 53.7371 74.1122 53.76C74.0905 53.7828 74.0645 53.8012 74.0357 53.814L73.7404 53.9455C73.6823 53.9714 73.6162 53.9731 73.5568 53.9503C73.4974 53.9275 73.4494 53.882 73.4235 53.8239L72.292 51.2822C72.2664 51.2249 72.2643 51.1598 72.2863 51.1009C72.3082 51.042 72.3523 50.9941 72.4091 50.9674Z" fill="white"/>
<path d="M76.5807 49.3588L76.8695 49.265C76.93 49.2453 76.9959 49.2505 77.0526 49.2794C77.1093 49.3083 77.1522 49.3585 77.1719 49.4191L78.0301 52.0604C78.0501 52.1222 78.0449 52.1894 78.0154 52.2472C77.9859 52.3051 77.9346 52.3489 77.8728 52.369L77.5654 52.4689C77.5048 52.4886 77.439 52.4834 77.3823 52.4545C77.3255 52.4256 77.2826 52.3753 77.263 52.3148L76.4033 49.6688C76.3836 49.6083 76.3888 49.5424 76.4177 49.4857C76.4466 49.429 76.4968 49.3861 76.5574 49.3664L76.5807 49.3588Z" fill="white"/>
<path d="M85.9699 50.698C86.0013 50.6956 86.0319 50.6869 86.0598 50.6724C86.0877 50.6579 86.1125 50.638 86.1326 50.6138C86.1527 50.5896 86.1677 50.5616 86.1768 50.5315C86.1859 50.5013 86.1888 50.4697 86.1854 50.4384L85.8965 47.671C85.8934 47.6394 85.8841 47.6087 85.8691 47.5808C85.8542 47.5528 85.8338 47.5281 85.8092 47.508C85.7846 47.488 85.7562 47.473 85.7258 47.464C85.6954 47.455 85.6635 47.4521 85.632 47.4555L85.3087 47.4898C85.2771 47.4928 85.2464 47.5021 85.2185 47.5171C85.1905 47.5321 85.1658 47.5524 85.1457 47.577C85.1257 47.6016 85.1107 47.63 85.1017 47.6604C85.0927 47.6908 85.0898 47.7227 85.0932 47.7543L85.3871 50.5168C85.3901 50.5484 85.3994 50.579 85.4144 50.607C85.4294 50.635 85.4497 50.6597 85.4743 50.6797C85.4989 50.6998 85.5273 50.7147 85.5577 50.7238C85.5881 50.7328 85.62 50.7357 85.6516 50.7323L85.9699 50.698Z" fill="white"/>
<path d="M80.8931 48.1953L81.2093 48.128C81.2728 48.1145 81.3391 48.1268 81.3936 48.1622C81.448 48.1976 81.4862 48.2531 81.4997 48.3167L82.0772 51.0332C82.0904 51.0955 82.0783 51.1605 82.0437 51.2138C82.009 51.2672 81.9546 51.3047 81.8923 51.3179L81.5761 51.3851C81.5453 51.3917 81.5134 51.3921 81.4824 51.3863C81.4515 51.3806 81.4219 51.3688 81.3955 51.3516C81.369 51.3345 81.3462 51.3123 81.3284 51.2863C81.3105 51.2603 81.298 51.2311 81.2914 51.2002L80.713 48.4789C80.6999 48.4175 80.7114 48.3534 80.7451 48.3003C80.7788 48.2473 80.8319 48.2096 80.8931 48.1953Z" fill="white"/>
<path d="M70.3443 55.6892C70.3722 55.674 70.3967 55.6532 70.4163 55.6283C70.4359 55.6033 70.4503 55.5746 70.4585 55.544C70.4668 55.5133 70.4687 55.4813 70.4642 55.4498C70.4598 55.4184 70.449 55.3882 70.4325 55.361L69.0512 52.9512C69.0185 52.8956 68.9652 52.8551 68.9028 52.8386C68.8404 52.8221 68.7741 52.8309 68.7182 52.863L68.439 53.0246C68.3847 53.0573 68.3451 53.1097 68.3287 53.1709C68.3123 53.2321 68.3202 53.2973 68.3508 53.3528L69.7419 55.7627C69.7745 55.817 69.827 55.8565 69.8882 55.8729C69.9494 55.8894 70.0145 55.8815 70.07 55.8508L70.3443 55.6892Z" fill="white"/>
<path d="M49.2499 76.8868L49.3498 76.5793C49.3695 76.5188 49.4124 76.4685 49.4691 76.4396C49.5258 76.4107 49.5917 76.4055 49.6523 76.4252L52.2843 77.2804C52.346 77.3004 52.3973 77.3442 52.4268 77.4021C52.4563 77.46 52.4616 77.5272 52.4415 77.589L52.3416 77.8964C52.3328 77.928 52.3175 77.9574 52.2969 77.9829C52.2762 78.0083 52.2506 78.0293 52.2216 78.0444C52.1925 78.0596 52.1606 78.0687 52.128 78.0711C52.0953 78.0734 52.0624 78.0691 52.0315 78.0583L49.3855 77.1986C49.325 77.179 49.2747 77.136 49.2458 77.0793C49.2169 77.0226 49.2117 76.9567 49.2314 76.8962L49.2499 76.8868Z" fill="white"/>
<path d="M48.1124 81.221L48.1786 80.9096C48.1921 80.8461 48.2303 80.7905 48.2848 80.7552C48.3392 80.7198 48.4055 80.7075 48.4691 80.721L51.1856 81.2984C51.2479 81.3117 51.3023 81.3491 51.337 81.4025C51.3717 81.4558 51.3837 81.5208 51.3705 81.5831L51.3033 81.8993C51.29 81.9616 51.2526 82.016 51.1992 82.0507C51.1458 82.0854 51.0809 82.0974 51.0186 82.0842L48.2973 81.5057C48.235 81.4925 48.1805 81.4551 48.1459 81.4017C48.1112 81.3483 48.0992 81.2833 48.1124 81.221Z" fill="white"/>
<path d="M50.7128 85.656C50.7162 85.6244 50.7133 85.5925 50.7042 85.5621C50.6952 85.5317 50.6802 85.5034 50.6602 85.4788C50.6402 85.4542 50.6154 85.4338 50.5875 85.4188C50.5595 85.4038 50.5288 85.3946 50.4973 85.3915L47.7347 85.0976C47.6713 85.0921 47.6082 85.1115 47.5588 85.1517C47.5094 85.192 47.4776 85.2499 47.4702 85.3131L47.4359 85.6364C47.4326 85.6679 47.4355 85.6999 47.4445 85.7303C47.4535 85.7607 47.4685 85.789 47.4885 85.8136C47.5086 85.8382 47.5333 85.8586 47.5612 85.8736C47.5892 85.8886 47.6199 85.8978 47.6515 85.9009L50.4189 86.1899C50.4502 86.1933 50.4818 86.1903 50.5119 86.1812C50.5421 86.1722 50.5701 86.1571 50.5943 86.137C50.6185 86.1169 50.6384 86.0922 50.6529 86.0642C50.6673 86.0363 50.6761 86.0057 50.6785 85.9744L50.7128 85.656Z" fill="white"/>
<path d="M58.0922 61.4681L58.3085 61.2279C58.352 61.1796 58.4129 61.1506 58.4777 61.1472C58.5426 61.1438 58.6061 61.1663 58.6544 61.2098L60.7183 63.0681C60.7656 63.1107 60.794 63.1703 60.7974 63.2339C60.8007 63.2975 60.7786 63.3598 60.736 63.4071L60.5165 63.651C60.4739 63.6983 60.4142 63.7267 60.3507 63.73C60.2871 63.7334 60.2248 63.7113 60.1775 63.6687L58.1136 61.8104C58.0663 61.7678 58.0379 61.7081 58.0346 61.6446C58.0312 61.581 58.0533 61.5187 58.0959 61.4714L58.0922 61.4681Z" fill="white"/>
<path d="M55.6292 64.7616L55.4385 65.0235C55.3603 65.1309 55.3839 65.2813 55.4913 65.3595L57.7448 67.001C57.8522 67.0792 58.0026 67.0555 58.0808 66.9481L58.2716 66.6863C58.3498 66.5789 58.3261 66.4285 58.2188 66.3503L55.9652 64.7088C55.8579 64.6306 55.7074 64.6543 55.6292 64.7616Z" fill="white"/>
<path d="M50.8398 72.7089L50.9713 72.4136C50.9972 72.3554 51.0452 72.3099 51.1046 72.2871C51.164 72.2643 51.2301 72.266 51.2882 72.2919L53.8253 73.4215C53.8847 73.448 53.9311 73.4969 53.9544 73.5575C53.9776 73.6181 53.9759 73.6855 53.9494 73.7449L53.818 74.0402C53.7921 74.0984 53.7441 74.1439 53.6847 74.1667C53.6253 74.1895 53.5592 74.1877 53.5011 74.1619L50.9595 73.0302C50.9013 73.0043 50.8559 72.9564 50.833 72.897C50.8102 72.8376 50.812 72.7715 50.8379 72.7134L50.8398 72.7089Z" fill="white"/>
<path d="M89.9319 50.4875H90.1131C90.145 50.4881 90.1767 50.4824 90.2064 50.4706C90.2361 50.4589 90.2632 50.4413 90.286 50.4189C90.3088 50.3966 90.3269 50.3699 90.3393 50.3405C90.3516 50.311 90.358 50.2794 90.358 50.2475V47.4702C90.358 47.4053 90.3322 47.343 90.2863 47.2971C90.2403 47.2511 90.178 47.2253 90.1131 47.2253H89.7947C89.7298 47.2253 89.6675 47.2511 89.6215 47.2971C89.5756 47.343 89.5498 47.4053 89.5498 47.4702V50.2475C89.5498 50.2794 89.5562 50.311 89.5685 50.3405C89.5809 50.3699 89.599 50.3966 89.6218 50.4189C89.6446 50.4413 89.6717 50.4589 89.7014 50.4706C89.731 50.4824 89.7628 50.4881 89.7947 50.4875H89.9319Z" fill="white"/>
<path d="M124.184 70.3492C124.2 70.3771 124.22 70.4016 124.245 70.4212C124.27 70.4408 124.299 70.4552 124.33 70.4634C124.36 70.4717 124.392 70.4736 124.424 70.4691C124.455 70.4647 124.485 70.4539 124.512 70.4374L126.922 69.0512C126.978 69.0185 127.018 68.9652 127.035 68.9028C127.051 68.8405 127.043 68.7741 127.011 68.7182L126.849 68.439C126.816 68.3847 126.764 68.3451 126.703 68.3287C126.641 68.3123 126.576 68.3202 126.521 68.3508L124.111 69.7419C124.057 69.7745 124.017 69.827 124.001 69.8882C123.984 69.9494 123.992 70.0146 124.023 70.07L124.184 70.3492Z" fill="white"/>
<path d="M128.579 72.3022L126.038 73.4339C125.917 73.4878 125.862 73.6297 125.916 73.7508L126.047 74.0461C126.101 74.1672 126.243 74.2216 126.364 74.1677L128.906 73.036C129.027 72.9821 129.081 72.8403 129.028 72.7192L128.896 72.4238C128.842 72.3027 128.7 72.2483 128.579 72.3022Z" fill="white"/>
<path d="M121.952 66.8619C121.99 66.9132 122.046 66.9476 122.11 66.9576C122.173 66.9677 122.237 66.9527 122.289 66.9157L124.538 65.2798C124.589 65.2416 124.623 65.1849 124.634 65.1218C124.644 65.0586 124.629 64.994 124.592 64.9418L124.401 64.6822C124.362 64.6309 124.306 64.5965 124.243 64.5864C124.179 64.5764 124.115 64.5914 124.063 64.6283L121.814 66.2643C121.789 66.2831 121.767 66.3069 121.751 66.3341C121.735 66.3614 121.724 66.3916 121.719 66.423C121.715 66.4545 121.716 66.4865 121.724 66.5173C121.732 66.548 121.746 66.5769 121.765 66.6023L121.952 66.8619Z" fill="white"/>
<path d="M128.564 81.8942C128.578 81.9559 128.616 82.0098 128.669 82.0445C128.722 82.0792 128.786 82.092 128.848 82.0803L131.572 81.5023C131.634 81.4872 131.688 81.4487 131.722 81.395C131.757 81.3412 131.77 81.2762 131.758 81.2134L131.689 80.8999C131.683 80.8685 131.67 80.8387 131.652 80.8122C131.634 80.7858 131.611 80.7632 131.584 80.7459C131.557 80.7285 131.527 80.7167 131.495 80.7112C131.464 80.7057 131.431 80.7066 131.4 80.7137L128.682 81.2917C128.62 81.3069 128.566 81.3454 128.531 81.3991C128.496 81.4529 128.484 81.5179 128.496 81.5807L128.564 81.8942Z" fill="white"/>
<path d="M127.515 77.8973C127.525 77.9277 127.54 77.9558 127.56 77.9802C127.581 78.0045 127.606 78.0246 127.634 78.0392C127.662 78.0538 127.693 78.0626 127.725 78.0651C127.757 78.0677 127.789 78.0639 127.819 78.054L130.464 77.1969C130.525 77.1757 130.575 77.1315 130.603 77.0737C130.631 77.016 130.636 76.9494 130.616 76.8883L130.518 76.5846C130.497 76.5241 130.454 76.4738 130.398 76.4445C130.341 76.4152 130.275 76.4093 130.214 76.4279L127.569 77.2899C127.539 77.2994 127.51 77.3148 127.486 77.3352C127.462 77.3557 127.442 77.3807 127.427 77.409C127.413 77.4373 127.404 77.4681 127.401 77.4998C127.399 77.5315 127.402 77.5634 127.412 77.5936L127.515 77.8973Z" fill="white"/>
<path d="M129.191 85.9646C129.193 85.996 129.202 86.0265 129.217 86.0545C129.231 86.0824 129.251 86.1072 129.275 86.1273C129.299 86.1474 129.327 86.1624 129.357 86.1715C129.388 86.1805 129.419 86.1835 129.451 86.1801L132.218 85.8911C132.25 85.8881 132.28 85.8788 132.308 85.8638C132.336 85.8488 132.361 85.8284 132.381 85.8038C132.401 85.7792 132.416 85.7509 132.425 85.7205C132.434 85.6901 132.437 85.6582 132.433 85.6266L132.399 85.3033C132.392 85.2401 132.36 85.1822 132.311 85.142C132.261 85.1017 132.198 85.0823 132.135 85.0878L129.372 85.3817C129.341 85.3848 129.31 85.3941 129.282 85.409C129.254 85.424 129.229 85.4444 129.209 85.469C129.189 85.4936 129.174 85.5219 129.165 85.5524C129.156 85.5828 129.153 85.6147 129.157 85.6462L129.191 85.9646Z" fill="white"/>
<path d="M119.164 63.0807L121.228 61.2224C121.276 61.1789 121.34 61.1564 121.405 61.1598C121.469 61.1632 121.53 61.1922 121.574 61.2405L121.787 61.4771C121.829 61.5244 121.851 61.5867 121.848 61.6503C121.845 61.7138 121.816 61.7735 121.769 61.8161L119.705 63.6744C119.682 63.6955 119.654 63.7118 119.625 63.7223C119.595 63.7328 119.563 63.7374 119.532 63.7357C119.5 63.7341 119.47 63.7262 119.441 63.7127C119.413 63.6991 119.387 63.6801 119.366 63.6566L119.15 63.4164C119.129 63.393 119.112 63.3656 119.102 63.3359C119.091 63.3062 119.087 63.2747 119.089 63.2432C119.09 63.2118 119.098 63.1809 119.112 63.1525C119.125 63.124 119.144 63.0985 119.168 63.0774L119.164 63.0807Z" fill="white"/>
<path d="M116.206 60.1792L118.064 58.1149C118.108 58.0667 118.169 58.0376 118.234 58.0342C118.298 58.0308 118.362 58.0533 118.41 58.0968L118.647 58.3097C118.695 58.3532 118.724 58.414 118.728 58.4789C118.731 58.5438 118.709 58.6073 118.665 58.6556L116.807 60.7198C116.765 60.7671 116.705 60.7956 116.641 60.7989C116.578 60.8023 116.516 60.7802 116.468 60.7377L116.228 60.5214C116.181 60.4788 116.152 60.4192 116.149 60.3556C116.145 60.292 116.168 60.2297 116.21 60.1824L116.206 60.1792Z" fill="white"/>
<path d="M101.824 52.0582L102.682 49.4169C102.702 49.3551 102.746 49.3039 102.804 49.2744C102.862 49.2449 102.929 49.2396 102.991 49.2597L103.298 49.3596C103.328 49.3693 103.356 49.3849 103.38 49.4053C103.404 49.4258 103.424 49.4508 103.438 49.4789C103.452 49.507 103.461 49.5376 103.463 49.569C103.466 49.6004 103.462 49.632 103.452 49.662L102.593 52.308C102.583 52.338 102.568 52.3657 102.547 52.3897C102.527 52.4137 102.502 52.4334 102.473 52.4477C102.445 52.462 102.415 52.4706 102.383 52.4731C102.352 52.4756 102.32 52.4718 102.29 52.4621L101.983 52.3622C101.953 52.3524 101.925 52.3369 101.901 52.3164C101.877 52.296 101.858 52.271 101.843 52.2429C101.829 52.2148 101.82 52.1842 101.818 52.1527C101.815 52.1213 101.819 52.0897 101.829 52.0597L101.824 52.0582Z" fill="white"/>
<path d="M94.2179 50.698C94.2494 50.7014 94.2813 50.6985 94.3117 50.6895C94.3422 50.6804 94.3705 50.6655 94.3951 50.6454C94.4197 50.6254 94.4401 50.6007 94.455 50.5727C94.47 50.5447 94.4793 50.5141 94.4824 50.4825L94.7763 47.72C94.7796 47.6884 94.7767 47.6565 94.7677 47.6261C94.7587 47.5957 94.7437 47.5673 94.7237 47.5427C94.7036 47.5181 94.6789 47.4978 94.6509 47.4828C94.623 47.4678 94.5923 47.4585 94.5607 47.4555L94.2375 47.4212C94.2059 47.4178 94.174 47.4207 94.1436 47.4297C94.1132 47.4387 94.0848 47.4537 94.0602 47.4737C94.0356 47.4938 94.0153 47.5185 94.0003 47.5465C93.9853 47.5744 93.976 47.6051 93.973 47.6367L93.684 50.4041C93.6806 50.4354 93.6835 50.467 93.6926 50.4972C93.7017 50.5273 93.7167 50.5553 93.7368 50.5795C93.7569 50.6037 93.7817 50.6236 93.8096 50.6381C93.8376 50.6526 93.8681 50.6613 93.8995 50.6637L94.2179 50.698Z" fill="white"/>
<path d="M105.709 53.5031L106.84 50.9613C106.866 50.9031 106.914 50.8576 106.973 50.8348C107.033 50.812 107.099 50.8137 107.157 50.8396L107.452 50.971C107.512 50.9974 107.558 51.0463 107.581 51.107C107.605 51.1676 107.603 51.235 107.576 51.2944L106.447 53.8317C106.421 53.8898 106.374 53.9353 106.314 53.9581C106.255 53.981 106.189 53.9793 106.13 53.9534L105.835 53.8219C105.806 53.8096 105.779 53.7914 105.757 53.7686C105.734 53.7458 105.717 53.7187 105.705 53.689C105.693 53.6593 105.688 53.6276 105.688 53.5957C105.689 53.5637 105.696 53.5323 105.709 53.5031Z" fill="white"/>
<path d="M97.8038 51.0271L98.3827 48.3058C98.396 48.2436 98.4334 48.1891 98.4868 48.1545C98.5402 48.1198 98.6052 48.1078 98.6674 48.121L98.9836 48.1883C99.0472 48.2018 99.1027 48.24 99.1381 48.2945C99.1735 48.349 99.1857 48.4153 99.1722 48.4788L98.5943 51.1953C98.5811 51.2575 98.5437 51.312 98.4903 51.3466C98.4369 51.3813 98.3719 51.3933 98.3097 51.3801L97.9935 51.3128C97.9312 51.2996 97.8767 51.2621 97.8421 51.2087C97.8074 51.1553 97.7954 51.0904 97.8086 51.0281L97.8038 51.0271Z" fill="white"/>
<path d="M113.257 58.1138C113.282 58.1335 113.31 58.148 113.34 58.1562C113.371 58.1644 113.403 58.1663 113.434 58.1617C113.465 58.1571 113.495 58.1462 113.522 58.1295C113.549 58.1128 113.572 58.0908 113.59 58.0649L115.226 55.8166C115.263 55.7644 115.278 55.6998 115.268 55.6367C115.258 55.5735 115.223 55.5168 115.172 55.4786L114.912 55.2876C114.86 55.2507 114.796 55.2357 114.732 55.2457C114.669 55.2558 114.613 55.2902 114.574 55.3415L112.939 57.5897C112.902 57.642 112.887 57.7065 112.897 57.7697C112.907 57.8328 112.941 57.8896 112.992 57.9277L113.257 58.1138Z" fill="white"/>
<path d="M110.945 52.7406L109.436 55.3611C109.42 55.3882 109.409 55.4185 109.405 55.4499C109.4 55.4813 109.402 55.5134 109.41 55.544C109.419 55.5747 109.433 55.6034 109.453 55.6283C109.472 55.6533 109.497 55.674 109.525 55.6893L110.014 55.9734" fill="white"/>
<path d="M55.8269 70.0701C55.8575 70.0146 55.8654 69.9494 55.8489 69.8882C55.8325 69.827 55.793 69.7746 55.7387 69.7419L53.3484 68.3313C53.2929 68.3006 53.2277 68.2927 53.1665 68.3092C53.1053 68.3256 53.0529 68.3651 53.0202 68.4194L52.8586 68.6986C52.842 68.7262 52.8312 68.7567 52.8266 68.7885C52.8221 68.8204 52.824 68.8527 52.8322 68.8838C52.8404 68.9149 52.8548 68.944 52.8745 68.9694C52.8942 68.9948 52.9187 69.016 52.9468 69.0317L55.337 70.4375C55.3646 70.454 55.3952 70.4649 55.427 70.4694C55.4588 70.474 55.4912 70.4721 55.5222 70.4638C55.5533 70.4556 55.5824 70.4412 55.6078 70.4216C55.6332 70.4019 55.6544 70.3773 55.6701 70.3493L55.8269 70.0701Z" fill="white"/>
<path d="M93.8995 129.195C93.8681 129.198 93.8376 129.206 93.8096 129.221C93.7817 129.235 93.7569 129.255 93.7368 129.28C93.7167 129.304 93.7017 129.332 93.6926 129.362C93.6835 129.392 93.6806 129.424 93.684 129.455L93.973 132.222C93.976 132.254 93.9853 132.285 94.0003 132.313C94.0153 132.341 94.0356 132.365 94.0602 132.385C94.0848 132.405 94.1132 132.42 94.1436 132.429C94.174 132.438 94.2059 132.441 94.2375 132.438L94.5607 132.404C94.5923 132.401 94.623 132.391 94.6509 132.376C94.6789 132.361 94.7036 132.341 94.7237 132.316C94.7437 132.292 94.7587 132.263 94.7677 132.233C94.7767 132.203 94.7796 132.171 94.7763 132.139L94.4824 129.377C94.4793 129.345 94.47 129.314 94.455 129.286C94.4401 129.258 94.4197 129.234 94.3951 129.214C94.3705 129.194 94.3422 129.179 94.3117 129.17C94.2813 129.161 94.2494 129.158 94.2179 129.161L93.8995 129.195Z" fill="white"/>
<path d="M109.807 124.023L109.527 124.184C109.412 124.251 109.373 124.397 109.439 124.512L110.831 126.921C110.897 127.036 111.044 127.075 111.159 127.009L111.439 126.847C111.553 126.781 111.593 126.634 111.526 126.52L110.135 124.11C110.069 123.996 109.922 123.956 109.807 124.023Z" fill="white"/>
<path d="M116.211 119.365C116.167 119.41 116.142 119.471 116.142 119.534C116.142 119.597 116.167 119.658 116.211 119.703L118.072 121.77C118.118 121.815 118.18 121.84 118.244 121.84C118.308 121.84 118.37 121.815 118.415 121.77L118.655 121.554C118.7 121.509 118.725 121.447 118.725 121.383C118.725 121.319 118.7 121.257 118.655 121.211L116.799 119.144C116.753 119.1 116.692 119.074 116.628 119.074C116.563 119.074 116.502 119.1 116.456 119.144L116.211 119.365Z" fill="white"/>
<path d="M119.143 116.47L119.359 116.23C119.402 116.182 119.463 116.153 119.528 116.149C119.593 116.146 119.657 116.168 119.705 116.212L121.769 118.07C121.816 118.113 121.844 118.172 121.848 118.236C121.851 118.299 121.829 118.362 121.787 118.409L121.57 118.649C121.528 118.697 121.468 118.725 121.404 118.728C121.341 118.732 121.279 118.71 121.231 118.667L119.164 116.805C119.117 116.763 119.089 116.705 119.085 116.642C119.081 116.579 119.102 116.518 119.143 116.47Z" fill="white"/>
<path d="M97.9803 128.578C97.9494 128.585 97.9201 128.597 97.894 128.615C97.8679 128.633 97.8456 128.655 97.8283 128.682C97.811 128.708 97.7991 128.738 97.7932 128.769C97.7874 128.8 97.7877 128.831 97.7941 128.862L98.3721 131.581C98.3862 131.644 98.4242 131.699 98.4781 131.734C98.532 131.77 98.5976 131.783 98.6611 131.772L98.9746 131.703C99.006 131.697 99.0358 131.684 99.0622 131.666C99.0887 131.648 99.1112 131.625 99.1286 131.598C99.1459 131.571 99.1577 131.541 99.1632 131.509C99.1688 131.478 99.1679 131.445 99.1607 131.414L98.5827 128.696C98.5686 128.634 98.5312 128.58 98.4782 128.545C98.4252 128.511 98.3609 128.498 98.2986 128.51L97.9803 128.578Z" fill="white"/>
<path d="M102.276 127.224L101.969 127.324C101.843 127.365 101.775 127.501 101.816 127.627L102.678 130.27C102.719 130.396 102.855 130.465 102.98 130.423L103.288 130.323C103.414 130.282 103.482 130.147 103.441 130.021L102.579 127.378C102.538 127.252 102.402 127.183 102.276 127.224Z" fill="white"/>
<path d="M105.837 126.051C105.808 126.063 105.782 126.082 105.76 126.105C105.738 126.128 105.721 126.155 105.709 126.184C105.698 126.214 105.693 126.245 105.693 126.277C105.694 126.309 105.702 126.34 105.715 126.369L106.846 128.911C106.859 128.94 106.877 128.966 106.9 128.988C106.923 129.01 106.95 129.027 106.98 129.039C107.009 129.05 107.041 129.056 107.073 129.055C107.104 129.054 107.135 129.047 107.164 129.034L107.458 128.901C107.487 128.889 107.514 128.87 107.535 128.847C107.557 128.824 107.575 128.797 107.586 128.768C107.597 128.738 107.603 128.707 107.602 128.675C107.601 128.643 107.594 128.612 107.581 128.583L106.449 126.041C106.422 125.984 106.373 125.94 106.314 125.918C106.254 125.896 106.189 125.898 106.131 125.923L105.837 126.051Z" fill="white"/>
<path d="M50.6785 93.9045C50.6761 93.8731 50.6673 93.8426 50.6529 93.8146C50.6384 93.7867 50.6185 93.7619 50.5943 93.7418C50.5701 93.7217 50.5421 93.7067 50.5119 93.6976C50.4818 93.6885 50.4502 93.6856 50.4189 93.689L47.6515 93.978C47.6199 93.981 47.5892 93.9903 47.5612 94.0053C47.5333 94.0203 47.5086 94.0407 47.4885 94.0653C47.4685 94.0898 47.4535 94.1182 47.4445 94.1486C47.4355 94.179 47.4326 94.2109 47.4359 94.2425L47.4702 94.5657C47.4733 94.5973 47.4826 94.628 47.4976 94.6559C47.5125 94.6839 47.5329 94.7086 47.5575 94.7287C47.5821 94.7487 47.6104 94.7637 47.6409 94.7727C47.6713 94.7817 47.7032 94.7846 47.7347 94.7813L50.4973 94.4874C50.5288 94.4843 50.5595 94.475 50.5875 94.46C50.6154 94.4451 50.6402 94.4247 50.6602 94.4001C50.6802 94.3755 50.6952 94.3472 50.7042 94.3167C50.7133 94.2863 50.7162 94.2544 50.7128 94.2229L50.6785 93.9045Z" fill="white"/>
<path d="M128.571 97.9895L128.504 98.3058C128.476 98.4354 128.559 98.5629 128.689 98.5904L131.41 99.1689C131.54 99.1964 131.667 99.1137 131.695 98.984L131.762 98.6678C131.79 98.5381 131.707 98.4107 131.577 98.3831L128.856 97.8047C128.726 97.7771 128.599 97.8599 128.571 97.9895Z" fill="white"/>
<path d="M129.156 94.2229C129.152 94.2542 129.154 94.2859 129.163 94.3163C129.171 94.3467 129.186 94.3751 129.205 94.3998C129.225 94.4245 129.25 94.445 129.277 94.46C129.305 94.475 129.335 94.4843 129.367 94.4874L132.134 94.7813C132.166 94.7846 132.198 94.7817 132.228 94.7727C132.259 94.7637 132.287 94.7487 132.312 94.7287C132.336 94.7086 132.357 94.6839 132.371 94.6559C132.386 94.628 132.396 94.5973 132.399 94.5657L132.433 94.2425C132.437 94.2109 132.434 94.179 132.425 94.1486C132.416 94.1182 132.401 94.0898 132.381 94.0653C132.361 94.0407 132.336 94.0203 132.308 94.0053C132.28 93.9903 132.249 93.981 132.218 93.978L129.45 93.689C129.419 93.6856 129.387 93.6885 129.357 93.6976C129.327 93.7067 129.299 93.7217 129.275 93.7418C129.251 93.7619 129.231 93.7867 129.216 93.8146C129.202 93.8426 129.193 93.8731 129.191 93.9045L129.156 94.2229Z" fill="white"/>
<path d="M132.649 89.7802C132.648 89.7156 132.621 89.6541 132.576 89.6084C132.53 89.5627 132.469 89.5365 132.404 89.5353H129.627C129.563 89.5366 129.502 89.5629 129.457 89.6087C129.412 89.6545 129.387 89.7161 129.387 89.7802V90.1035C129.387 90.1671 129.412 90.2282 129.457 90.2732C129.502 90.3182 129.563 90.3435 129.627 90.3435H132.404C132.468 90.3435 132.53 90.3184 132.575 90.2735C132.621 90.2286 132.648 90.1676 132.649 90.1035V89.7802Z" fill="white"/>
<path d="M126.049 105.844L125.918 106.139C125.864 106.26 125.918 106.402 126.04 106.456L128.581 107.587C128.702 107.641 128.844 107.587 128.898 107.466L129.03 107.17C129.083 107.049 129.029 106.907 128.908 106.854L126.366 105.722C126.245 105.668 126.103 105.722 126.049 105.844Z" fill="white"/>
<path d="M124.032 109.779L124.194 109.499C124.226 109.442 124.28 109.401 124.342 109.385C124.405 109.368 124.472 109.377 124.528 109.409L126.933 110.798C126.961 110.813 126.985 110.834 127.004 110.859C127.023 110.884 127.037 110.913 127.045 110.943C127.053 110.974 127.055 111.006 127.051 111.037C127.047 111.068 127.037 111.098 127.021 111.126L126.857 111.41C126.825 111.465 126.773 111.505 126.711 111.522C126.65 111.538 126.584 111.529 126.529 111.498L124.12 110.106C124.065 110.075 124.025 110.022 124.008 109.961C123.992 109.899 124 109.834 124.032 109.779Z" fill="white"/>
<path d="M121.949 113.01L121.759 113.271C121.681 113.379 121.705 113.529 121.812 113.607L124.063 115.242C124.17 115.32 124.32 115.297 124.398 115.189L124.588 114.928C124.666 114.821 124.642 114.67 124.535 114.593L122.285 112.957C122.177 112.879 122.027 112.903 121.949 113.01Z" fill="white"/>
<path d="M127.516 101.987L127.416 102.295C127.375 102.421 127.444 102.556 127.57 102.597L130.216 103.457C130.342 103.498 130.478 103.429 130.518 103.303L130.618 102.995C130.659 102.869 130.59 102.734 130.464 102.693L127.818 101.833C127.692 101.792 127.557 101.861 127.516 101.987Z" fill="white"/>
<path d="M112.993 121.961L113.255 121.771C113.306 121.733 113.37 121.718 113.433 121.728C113.496 121.738 113.552 121.772 113.59 121.824L115.222 124.07C115.26 124.123 115.276 124.189 115.266 124.253C115.256 124.317 115.221 124.374 115.168 124.413L114.907 124.603C114.855 124.64 114.791 124.655 114.728 124.645C114.665 124.635 114.609 124.601 114.571 124.549L112.939 122.303C112.901 122.251 112.886 122.187 112.896 122.124C112.906 122.061 112.94 122.005 112.992 121.967L112.993 121.961Z" fill="white"/>
<path d="M63.4188 119.149C63.373 119.104 63.3114 119.079 63.2473 119.079C63.1832 119.079 63.1217 119.104 63.0759 119.149L61.2146 121.231C61.1918 121.253 61.1737 121.28 61.1613 121.309C61.1489 121.339 61.1426 121.37 61.1426 121.402C61.1426 121.434 61.1489 121.466 61.1613 121.495C61.1737 121.525 61.1918 121.551 61.2146 121.574L61.4546 121.789C61.5004 121.834 61.562 121.859 61.6261 121.859C61.6902 121.859 61.7517 121.834 61.7975 121.789L63.6588 119.722C63.7033 119.677 63.7284 119.617 63.7284 119.553C63.7284 119.49 63.7033 119.429 63.6588 119.384L63.4188 119.149Z" fill="white"/>
<path d="M55.3358 114.581L57.5827 112.948C57.6341 112.911 57.6984 112.896 57.7613 112.905C57.8241 112.915 57.8805 112.95 57.9179 113.001L58.1079 113.263C58.1461 113.316 58.1618 113.381 58.1517 113.445C58.1415 113.509 58.1063 113.567 58.0537 113.605L55.8069 115.237C55.7554 115.275 55.6912 115.29 55.6283 115.28C55.5654 115.27 55.5091 115.236 55.4717 115.184L55.2816 114.923C55.2442 114.871 55.2288 114.807 55.2388 114.744C55.2487 114.681 55.2832 114.625 55.3347 114.588L55.3358 114.581Z" fill="white"/>
<path d="M60.1717 116.197L58.1041 118.058C58.0056 118.147 57.9977 118.299 58.0864 118.397L58.3027 118.637C58.3914 118.736 58.5431 118.744 58.6416 118.655L60.7092 116.793C60.8077 116.705 60.8156 116.553 60.7269 116.455L60.5106 116.214C60.4219 116.116 60.2702 116.108 60.1717 116.197Z" fill="white"/>
<path d="M55.6849 109.529C55.6697 109.502 55.649 109.477 55.624 109.458C55.599 109.438 55.5704 109.424 55.5397 109.415C55.509 109.407 55.477 109.405 55.4456 109.41C55.4141 109.414 55.3839 109.425 55.3568 109.441L52.9469 110.827C52.8913 110.86 52.8508 110.914 52.8343 110.976C52.8178 111.038 52.8266 111.105 52.8587 111.161L53.0204 111.44C53.053 111.494 53.1055 111.534 53.1667 111.55C53.2279 111.566 53.293 111.559 53.3485 111.528L55.7584 110.137C55.8127 110.104 55.8522 110.052 55.8687 109.991C55.8851 109.929 55.8772 109.864 55.8466 109.809L55.6849 109.529Z" fill="white"/>
<path d="M89.9319 129.391H89.7752C89.7433 129.391 89.7115 129.396 89.6818 129.408C89.6521 129.42 89.6251 129.437 89.6023 129.46C89.5795 129.482 89.5614 129.509 89.549 129.538C89.5366 129.568 89.5303 129.599 89.5303 129.631V132.408C89.5303 132.473 89.5561 132.536 89.602 132.582C89.6479 132.628 89.7102 132.653 89.7752 132.653H90.1132C90.1781 132.653 90.2404 132.628 90.2863 132.582C90.3323 132.536 90.3581 132.473 90.3581 132.408V129.631C90.3581 129.599 90.3517 129.568 90.3393 129.538C90.327 129.509 90.3088 129.482 90.286 129.46C90.2632 129.437 90.2362 129.42 90.2065 129.408C90.1768 129.396 90.1451 129.391 90.1132 129.391H89.9319Z" fill="white"/>
<path d="M53.8235 105.841C53.7967 105.783 53.7485 105.738 53.6891 105.715C53.6297 105.693 53.5637 105.694 53.5051 105.719L50.963 106.85C50.9339 106.863 50.9077 106.881 50.8858 106.904C50.8639 106.927 50.8467 106.954 50.8353 106.984C50.8239 107.013 50.8185 107.045 50.8194 107.077C50.8203 107.108 50.8275 107.14 50.8405 107.169L50.9728 107.462C50.9855 107.492 51.0039 107.518 51.0268 107.54C51.0497 107.562 51.0768 107.579 51.1064 107.59C51.136 107.601 51.1676 107.607 51.1993 107.606C51.231 107.605 51.2622 107.598 51.2911 107.585L53.8333 106.453C53.8911 106.427 53.9359 106.378 53.958 106.319C53.98 106.259 53.9774 106.193 53.9508 106.135L53.8235 105.841Z" fill="white"/>
<path d="M52.0569 101.821L49.4109 102.681C49.2848 102.722 49.2158 102.857 49.2568 102.984L49.3567 103.291C49.3977 103.417 49.5331 103.486 49.6591 103.445L52.3051 102.585C52.4312 102.544 52.5002 102.409 52.4592 102.283L52.3593 101.976C52.3183 101.849 52.1829 101.78 52.0569 101.821Z" fill="white"/>
<path d="M51.3061 97.9844C51.292 97.9227 51.2545 97.8688 51.2016 97.8341C51.1486 97.7994 51.0842 97.7866 51.022 97.7983L48.3036 98.3763C48.2405 98.3904 48.1854 98.4284 48.1498 98.4823C48.1142 98.5362 48.1008 98.6017 48.1125 98.6653L48.1811 98.9787C48.1843 99.0134 48.1949 99.0469 48.2123 99.077C48.2297 99.1071 48.2534 99.1331 48.2818 99.1531C48.3102 99.1731 48.3427 99.1867 48.3769 99.193C48.4111 99.1993 48.4462 99.198 48.4799 99.1894L51.1983 98.6114C51.2601 98.5973 51.314 98.5598 51.3487 98.5068C51.3834 98.4539 51.3962 98.3895 51.3845 98.3273L51.3061 97.9844Z" fill="white"/>
<path d="M81.288 128.696L80.7091 131.417C80.6815 131.547 80.7643 131.674 80.8939 131.702L81.2101 131.769C81.3398 131.797 81.4672 131.714 81.4948 131.584L82.0737 128.863C82.1013 128.734 82.0186 128.606 81.8889 128.579L81.5727 128.511C81.4431 128.484 81.3156 128.566 81.288 128.696Z" fill="white"/>
<path d="M76.3771 130.409L77.2396 127.766C77.2494 127.736 77.265 127.709 77.2855 127.685C77.3059 127.661 77.3309 127.641 77.359 127.627C77.3871 127.613 77.4177 127.604 77.4491 127.602C77.4805 127.599 77.5121 127.603 77.542 127.613L77.8445 127.711C77.9062 127.732 77.9574 127.775 77.9868 127.833C78.0162 127.891 78.0214 127.958 78.0012 128.02L77.1403 130.658C77.1205 130.719 77.0776 130.769 77.0209 130.798C76.9642 130.827 76.8983 130.832 76.8379 130.812L76.5307 130.712C76.4703 130.692 76.4201 130.649 76.3913 130.592C76.3625 130.536 76.3574 130.47 76.3771 130.409Z" fill="white"/>
<path d="M85.3852 129.373L85.0944 132.14C85.0806 132.272 85.1762 132.39 85.308 132.404L85.6295 132.438C85.7614 132.452 85.8795 132.356 85.8933 132.224L86.1841 129.457C86.198 129.326 86.1024 129.207 85.9705 129.194L85.649 129.16C85.5172 129.146 85.3991 129.242 85.3852 129.373Z" fill="white"/>
<path d="M66.6023 121.765C66.5769 121.746 66.548 121.732 66.5173 121.724C66.4865 121.716 66.4545 121.714 66.423 121.719C66.3916 121.723 66.3614 121.734 66.3341 121.75C66.3069 121.767 66.2831 121.788 66.2643 121.814L64.643 124.062C64.6058 124.115 64.5906 124.18 64.6007 124.244C64.6107 124.308 64.6452 124.366 64.6969 124.405L64.9565 124.591C65.0087 124.628 65.0733 124.643 65.1365 124.633C65.1996 124.623 65.2563 124.589 65.2945 124.537L66.9304 122.289C66.9674 122.237 66.9824 122.172 66.9723 122.109C66.9623 122.046 66.9279 121.989 66.8766 121.951L66.6023 121.765Z" fill="white"/>
<path d="M73.4187 126.045L72.2871 128.586C72.2332 128.707 72.2876 128.849 72.4087 128.903L72.704 129.035C72.8251 129.088 72.967 129.034 73.0209 128.913L74.1525 126.371C74.2064 126.25 74.152 126.108 74.0309 126.054L73.7355 125.923C73.6145 125.869 73.4726 125.923 73.4187 126.045Z" fill="white"/>
<path d="M68.3436 126.518L69.7318 124.113C69.7643 124.056 69.8177 124.015 69.8805 123.999C69.9432 123.982 70.0101 123.991 70.0663 124.023L70.3463 124.185C70.4015 124.216 70.4417 124.269 70.4582 124.33C70.4747 124.392 70.466 124.457 70.4342 124.512L69.0436 126.922C69.0118 126.977 68.9594 127.017 68.8979 127.034C68.8364 127.05 68.7709 127.042 68.7157 127.01L68.4357 126.848C68.3806 126.817 68.3404 126.764 68.3239 126.703C68.3074 126.641 68.316 126.576 68.3478 126.521L68.3436 126.518Z" fill="white"/>
<path d="M69.3588 52.2316L67.5654 53.2692L71.1415 59.4507L72.9349 58.4132L69.3588 52.2316Z" fill="white"/>
<path d="M88.8984 47.0049V54.1464H90.9703V47L88.8984 47.0049Z" fill="white"/>
<path d="M53.268 67.5666L52.2305 69.36L58.412 72.9362L59.4495 71.1428L53.268 67.5666Z" fill="white"/>
<path d="M126.602 67.5697L120.417 71.1404L121.453 72.9347L127.638 69.364L126.602 67.5697Z" fill="white"/>
<path d="M54.1415 88.9034H47V90.9753H54.1415V88.9034Z" fill="white"/>
<path d="M110.653 51.8048L107.082 58.0178L108.885 59.0538L112.455 52.8407L110.653 51.8048Z" fill="white"/>
<path d="M108.726 120.426L106.933 121.463L110.507 127.645L112.3 126.608L108.726 120.426Z" fill="white"/>
<path d="M132.869 88.9034H125.728V90.9753H132.869V88.9034Z" fill="white"/>
<path d="M121.455 106.941L120.417 108.734L126.598 112.311L127.636 110.518L121.455 106.941Z" fill="white"/>
<path d="M58.4151 106.944L52.2305 110.515L53.2664 112.309L59.4511 108.738L58.4151 106.944Z" fill="white"/>
<path d="M90.9703 125.732H88.8984V132.874H90.9703V125.732Z" fill="white"/>
<path d="M71.1381 120.423L67.5674 126.608L69.3617 127.644L72.9324 121.459L71.1381 120.423Z" fill="white"/>
<path d="M83.3184 84.8738H81.3203V71.6287L77.3135 73.1003V71.2957L83.0068 69.158H83.3184V84.8738ZM89.2803 87.989L88.1523 87.2156C88.8255 86.2774 89.1764 85.3106 89.2051 84.3152V82.5212H91.1494V84.0789C91.1494 84.8022 90.9704 85.5255 90.6123 86.2488C90.2614 86.9721 89.8174 87.5522 89.2803 87.989ZM94.3721 77.032L95.167 69.2332H103.181V71.0701H96.8535L96.3809 75.3347C97.1471 74.8835 98.0173 74.658 98.9912 74.658C100.416 74.658 101.548 75.1306 102.386 76.0759C103.224 77.0141 103.643 78.2852 103.643 79.8894C103.643 81.5007 103.206 82.7719 102.332 83.7029C101.465 84.6267 100.252 85.0886 98.6904 85.0886C97.3083 85.0886 96.1803 84.7055 95.3066 83.9392C94.4329 83.1729 93.9352 82.113 93.8135 80.7595H95.6934C95.8151 81.6547 96.1338 82.3315 96.6494 82.7898C97.165 83.241 97.8454 83.4666 98.6904 83.4666C99.6143 83.4666 100.338 83.1514 100.86 82.5212C101.39 81.891 101.655 81.0209 101.655 79.9109C101.655 78.8653 101.369 78.0274 100.796 77.3972C100.23 76.7598 99.4746 76.4412 98.5293 76.4412C97.6628 76.4412 96.9824 76.6309 96.4883 77.0105L95.9619 77.4402L94.3721 77.032ZM76.5723 105.874H74.5742V101.663C73.7005 101.892 72.8053 102.007 71.8887 102.007C70.4349 102.007 69.3249 101.634 68.5586 100.889C67.7995 100.145 67.4128 99.0847 67.3984 97.7097V94.24H69.3857V97.7742C69.4215 99.5072 70.2559 100.374 71.8887 100.374C72.8053 100.374 73.7005 100.259 74.5742 100.03V94.2507H76.5723V105.874ZM86.9385 105.874C86.8239 105.645 86.7308 105.236 86.6592 104.649C85.7354 105.609 84.6325 106.089 83.3506 106.089C82.2048 106.089 81.263 105.766 80.5254 105.122C79.7949 104.47 79.4297 103.647 79.4297 102.651C79.4297 101.441 79.888 100.503 80.8047 99.8367C81.7285 99.1635 83.0247 98.8269 84.6934 98.8269H86.627V97.9138C86.627 97.2192 86.4193 96.6677 86.0039 96.2595C85.5885 95.8442 84.9762 95.6365 84.167 95.6365C83.458 95.6365 82.8636 95.8155 82.3838 96.1736C81.904 96.5317 81.6641 96.9649 81.6641 97.4734H79.666C79.666 96.8933 79.8701 96.3347 80.2783 95.7976C80.6937 95.2533 81.2523 94.8236 81.9541 94.5085C82.6631 94.1934 83.4401 94.0359 84.2852 94.0359C85.6243 94.0359 86.6735 94.3725 87.4326 95.0457C88.1917 95.7117 88.5856 96.6319 88.6143 97.8064V103.156C88.6143 104.223 88.7503 105.072 89.0225 105.702V105.874H86.9385ZM83.6406 104.359C84.2637 104.359 84.8545 104.198 85.4131 103.876C85.9717 103.553 86.3763 103.135 86.627 102.619V100.234H85.0693C82.6344 100.234 81.417 100.947 81.417 102.372C81.417 102.995 81.6247 103.482 82.04 103.833C82.4554 104.184 82.9889 104.359 83.6406 104.359ZM96.3916 104.467C97.1006 104.467 97.7201 104.252 98.25 103.822C98.7799 103.392 99.0736 102.855 99.1309 102.211H101.011C100.975 102.877 100.746 103.51 100.323 104.112C99.9007 104.714 99.335 105.193 98.626 105.552C97.9242 105.91 97.1794 106.089 96.3916 106.089C94.8089 106.089 93.5485 105.562 92.6104 104.51C91.6794 103.45 91.2139 102.003 91.2139 100.17V99.8367C91.2139 98.7052 91.4215 97.699 91.8369 96.8181C92.2523 95.9373 92.8467 95.2533 93.6201 94.7664C94.4007 94.2794 95.321 94.0359 96.3809 94.0359C97.6842 94.0359 98.7656 94.4262 99.625 95.2068C100.492 95.9874 100.953 97.0007 101.011 98.2468H99.1309C99.0736 97.4949 98.7871 96.879 98.2715 96.3992C97.763 95.9122 97.1328 95.6687 96.3809 95.6687C95.3711 95.6687 94.5869 96.0339 94.0283 96.7644C93.4769 97.4877 93.2012 98.5369 93.2012 99.9119V100.288C93.2012 101.627 93.4769 102.658 94.0283 103.382C94.5798 104.105 95.3675 104.467 96.3916 104.467ZM110.421 105.874C110.306 105.645 110.213 105.236 110.142 104.649C109.218 105.609 108.115 106.089 106.833 106.089C105.687 106.089 104.745 105.766 104.008 105.122C103.277 104.47 102.912 103.647 102.912 102.651C102.912 101.441 103.37 100.503 104.287 99.8367C105.211 99.1635 106.507 98.8269 108.176 98.8269H110.109V97.9138C110.109 97.2192 109.902 96.6677 109.486 96.2595C109.071 95.8442 108.459 95.6365 107.649 95.6365C106.94 95.6365 106.346 95.8155 105.866 96.1736C105.386 96.5317 105.146 96.9649 105.146 97.4734H103.148C103.148 96.8933 103.353 96.3347 103.761 95.7976C104.176 95.2533 104.735 94.8236 105.437 94.5085C106.146 94.1934 106.923 94.0359 107.768 94.0359C109.107 94.0359 110.156 94.3725 110.915 95.0457C111.674 95.7117 112.068 96.6319 112.097 97.8064V103.156C112.097 104.223 112.233 105.072 112.505 105.702V105.874H110.421ZM107.123 104.359C107.746 104.359 108.337 104.198 108.896 103.876C109.454 103.553 109.859 103.135 110.109 102.619V100.234H108.552C106.117 100.234 104.899 100.947 104.899 102.372C104.899 102.995 105.107 103.482 105.522 103.833C105.938 104.184 106.471 104.359 107.123 104.359Z" fill="#E10700"/>
</svg>
