<svg width="180" height="180" viewBox="0 0 180 180" fill="none" xmlns="http://www.w3.org/2000/svg">
<circle cx="90" cy="90" r="90" fill="#E10700"/>
<path d="M83.2769 115.179C82.506 113.147 82.506 111.305 82.6376 109.333C82.9507 104.606 83.1164 99.887 82.4376 95.0896C83.9373 94.8443 85.4291 94.7426 86.8368 94.3383C88.7548 93.7878 90.7465 93.2452 92.4541 92.267C95.0562 90.7748 96.3165 88.1452 96.4165 85.2835C96.5349 81.913 96.2534 78.5165 95.9297 75.1513C95.7614 73.427 94.9378 71.9139 92.9803 71.3896C92.6041 71.2878 92.3041 70.9043 91.991 70.667C92.7014 69.3443 93.4513 68.1678 93.9906 66.9026C95.1536 64.1661 94.4774 62.7835 91.7095 61.7896C89.3231 60.9339 86.9736 60.0026 84.5846 59.1365C83.7426 58.8287 83.269 58.333 83.3322 57.407C83.4953 55.1609 82.5297 53.2957 81.322 51.5009C79.9828 49.5157 78.7226 47.4783 77.3465 45.5191C75.9284 43.5026 74.234 41.7574 71.7897 40.7504C72.8895 38.2278 73.3683 35.6974 72.1843 33C70.6346 33.9391 69.1928 34.9278 67.6484 35.7209C65.212 36.9765 62.7406 38.1565 60.234 39.2609C56.3953 40.9461 52.233 43.0983 48.5521 45.0965C42.7874 48.227 37.4832 54.4878 33.8181 62.3139C31.5554 68.4365 30.3188 78.9861 36.8386 87.2322C39.7512 90.913 43.7215 93.6417 47.2734 96.72C47.947 97.3044 49.0941 97.3487 50.2228 97.7035C46.7445 101.267 33.4603 112.86 32.2132 113.781C43.3347 133.518 64.5753 146.937 88.8653 147C90.444 147 92.0226 146.95 93.567 146.846C93.0303 144.704 86.0317 122.437 83.2769 115.179ZM66.1303 48.42C67.3721 46.8548 68.5272 45.2113 69.6875 43.5809C70.1532 42.9235 70.7188 42.7304 71.345 43.2209C72.5001 44.1261 73.8367 44.9348 74.6733 46.0904C76.7414 48.9339 78.6489 51.9052 80.4459 54.9261C80.9353 55.7478 80.8721 56.9296 80.9432 57.9522C81.051 59.5565 81.7956 60.6339 83.3111 61.2026C85.9264 62.1783 88.5259 63.2061 91.1596 64.1348C92.0515 64.4478 92.2647 64.9174 91.8753 65.6765C91.3783 66.7357 90.8132 67.7622 90.1835 68.7496C88.868 70.6696 88.5233 70.5548 90.4334 72.6183C88.1023 74.0687 85.9606 75.5948 82.8454 74.8122C79.3356 73.933 75.7073 73.5261 72.1317 72.9078C71.8533 72.8364 71.5792 72.7494 71.3108 72.647L72.2712 71.7835C71.8423 71.0348 71.5029 70.273 71.0135 69.6209C69.2049 67.2462 68.3829 64.2746 68.7166 61.3174C69.1274 57.5403 68.1512 53.743 65.9671 50.6217C65.412 49.7922 65.533 49.1739 66.1303 48.42ZM79.7039 94.4583C80.8379 98.4704 80.4933 102.561 80.3985 106.636C80.3486 108.577 80.1197 110.512 79.9513 112.717C78.391 112.317 76.9808 112.064 75.6442 111.6C67.3669 108.73 60.0499 104.181 53.2538 98.7522C53.1297 98.6626 52.9921 98.593 52.846 98.5461C53.2801 97.3617 53.5932 96.4304 53.9721 95.5252C54.0957 95.2543 54.3172 95.0393 54.593 94.9226C57.1741 94.0278 58.166 91.7609 59.3 89.6217C59.8683 88.5496 60.4024 87.4591 60.9628 86.3557C58.1318 85.2209 55.8822 83.353 54.0379 80.8617C51.8146 77.8565 53.4012 71.2826 58.5449 70.8704C61.297 70.6513 63.978 70.7348 66.3907 72.3157C69.3296 74.2356 72.7816 74.3687 76.081 75.0313C78.1858 75.4539 80.2749 75.887 82.3824 76.2548C85.2555 76.7556 86.8552 78.5374 87.3814 81.253C87.8103 83.46 88.0892 85.7061 87.3525 87.9339C86.7105 89.8748 85.8264 90.4174 83.8005 89.9556C77.9832 88.6356 72.1528 87.48 66.175 87.2191C64.6805 87.1513 63.2019 86.7391 61.7022 86.58C63.3782 87.9104 65.4199 88.1896 67.4063 88.6096C73.0684 89.8096 78.7331 91.0017 84.4004 92.1861C84.4004 92.2435 84.4136 92.3009 84.4188 92.3609C83.2717 92.5043 82.1245 92.653 80.9747 92.7887C79.9434 92.9009 79.4066 93.4461 79.7039 94.4583Z" fill="white"/>
<path d="M143.902 68.3764L134.43 62.6139C133.499 62.0478 132.589 61.4243 131.628 60.9286C130.139 60.1695 128.747 60.386 127.532 61.5547C127.25 61.8156 126.974 62.1078 126.698 62.3869C124.269 64.8234 121.851 67.2678 119.412 69.6912C118.57 70.526 117.694 71.3321 116.781 72.099C116.509 72.275 116.179 72.3404 115.86 72.2817C111.237 71.5304 106.612 70.7895 102.002 69.9547C100.308 69.6495 98.6583 69.086 96.9796 68.6712C96.606 68.5799 96.1324 68.4834 95.8246 68.6321C95.3168 68.8747 94.5459 69.3156 94.5459 69.6756C94.5459 70.166 95.0721 70.946 95.5299 71.0921C96.7894 71.4502 98.0798 71.6912 99.3844 71.8121C101.671 72.073 103.978 72.1903 106.254 72.5138C109.243 72.939 112.208 73.526 115.2 73.9982C115.897 74.1077 116.129 74.4129 116.413 75.0599C116.889 76.1451 117.023 76.9642 116.363 78.0964C115.66 79.3016 116.363 80.4729 117.941 81.4877C117.334 84.206 117.757 85.1399 119.92 85.8651C120.091 88.7112 121.962 89.8251 124.608 88.5755C125.585 88.1138 126.45 87.4277 127.24 86.919C128.966 88.5129 130.678 90.1694 132.47 91.732C134.101 93.1538 135.791 94.5155 137.516 95.8225C138.937 96.8972 142.547 99.2346 144.015 100.257C145.673 97.0485 147.436 92.0581 147.999 82.4973C148.009 78.2947 148.078 73.4999 143.902 68.3764ZM120.725 73.0486C121.314 74.7103 119.657 75.1095 119.146 76.2495C118.441 74.7234 118.954 73.7347 120.733 73.0486H120.725ZM120.157 83.9451C119.986 83.9999 119.433 83.5486 119.465 83.4234C119.685 82.7065 119.948 82.0035 120.254 81.3181L122.222 83.0268C121.557 83.3763 120.87 83.6831 120.165 83.9451H120.157ZM123.082 87.1825C122.78 87.3077 122.198 87.112 121.933 86.8642C121.772 86.7155 121.864 86.1077 122.043 85.839C122.436 85.2222 122.921 84.6674 123.48 84.1929C123.695 84.0155 124.269 84.1016 124.595 84.2634C125.085 84.5242 125.49 84.9286 126.269 85.539C125.048 86.1886 124.101 86.7599 123.09 87.1825H123.082ZM143.842 96.9025C143.774 97.1249 143.693 97.3428 143.597 97.5546C141.342 96.1538 139.095 94.8312 136.935 93.3807C135.933 92.7077 135.064 91.8155 134.191 90.9833C131.489 88.3877 128.873 85.7034 126.1 83.1886C124.961 82.1581 123.498 81.4825 122.196 80.6295C121.948 80.4491 121.725 80.2388 121.53 80.0034C119.815 78.099 119.859 78.1121 121.53 76.1842C122.185 75.4225 122.609 74.4651 123.246 73.4164C124.269 74.2695 125.548 75.1225 126.561 76.2208C128.481 78.3077 130.936 79.3512 133.565 80.0973C133.959 80.2095 134.499 79.8364 134.972 79.6773C134.737 79.239 134.457 78.8264 134.136 78.446C133.915 78.2269 133.504 78.1851 133.031 78.0155C133.696 76.2681 134.771 74.7025 136.167 73.4477C136.448 73.1869 136.404 72.5738 136.509 72.1251C136.089 72.0415 135.663 71.9909 135.235 71.9738C135.064 71.9738 134.896 72.2347 134.728 72.3651L134.091 72.9025C133.146 71.499 132.646 70.213 133.791 68.7573C133.991 68.4964 133.636 67.8182 133.528 67.3304C133.102 67.5182 132.586 67.6173 132.273 67.9199C131.915 68.2669 131.747 68.7938 131.26 69.6495C130.639 68.6504 130.207 67.8651 129.681 67.153C129.397 66.7669 128.95 66.4982 128.576 66.1773C128.358 66.6338 128.018 67.0721 127.945 67.5521C127.863 68.0999 128.276 68.9164 128.013 69.2034C127.055 70.2469 125.908 71.1443 124.814 72.073C124.711 72.1564 124.416 72.0469 124.224 71.9817C123.135 71.6164 122.051 71.2356 120.667 70.7582C121.006 70.5872 121.324 70.3799 121.617 70.1399C123.761 67.9799 125.908 65.8173 128.008 63.6182C129.486 62.053 130.005 61.9225 131.825 63.0965C133.296 64.033 134.685 65.0999 136.151 66.0495C137.135 66.686 138.132 67.3773 139.221 67.7738C143.065 69.1773 144.97 71.9477 145.397 75.879C146.194 82.9215 145.669 90.0493 143.849 96.9025H143.842ZM127.574 72.6103L129.786 70.5077C131.962 71.473 133.138 74.1051 131.747 76.0721C132.37 72.1434 129.168 73.4373 127.574 72.6103Z" fill="white"/>
<path d="M134.091 72.9054C133.147 71.5019 132.647 70.2159 133.791 68.7602C133.991 68.4993 133.636 67.8211 133.528 67.3333C133.102 67.5211 132.586 67.6202 132.273 67.9228C131.915 68.2698 131.747 68.7967 131.26 69.6524C130.639 68.6533 130.208 67.868 129.681 67.1559C129.397 66.7698 128.95 66.5011 128.576 66.1802C128.358 66.6367 128.019 67.075 127.945 67.555C127.863 68.1028 128.276 68.9193 128.013 69.2063C127.056 70.2498 125.908 71.1471 124.814 72.0758C124.711 72.1593 124.417 72.0498 124.225 71.9845C123.135 71.6193 122.051 71.2385 120.667 70.7611C121.006 70.5901 121.324 70.3827 121.617 70.1428C123.761 67.9828 125.908 65.8202 128.008 63.6211C129.487 62.0559 130.005 61.9255 131.826 63.0994C133.296 64.0359 134.686 65.1028 136.151 66.0524C137.135 66.6889 138.132 67.3802 139.222 67.7767C143.066 69.1802 145.763 73.0541 146.189 76.9749C146.965 84.0836 145.686 90.0183 143.839 96.9314C143.772 97.1538 143.69 97.3717 143.595 97.5835C141.34 96.1827 139.093 94.8601 136.933 93.4096C135.93 92.7366 135.062 91.8444 134.188 91.0123C131.486 88.4166 128.871 85.7323 126.098 83.2175C124.959 82.1871 123.496 81.5114 122.193 80.6584C121.946 80.478 121.722 80.2677 121.528 80.0323C119.812 78.128 119.857 78.141 121.528 76.2132C122.183 75.4515 122.606 74.4941 123.243 73.4454C124.267 74.2984 125.545 75.1515 126.558 76.2497C128.476 78.3367 130.934 79.3801 133.562 80.1262C133.957 80.2384 134.496 79.8654 134.97 79.7062C134.735 79.268 134.455 78.8553 134.133 78.4749C133.912 78.2558 133.502 78.2141 133.028 78.0445C133.694 76.2971 134.769 74.7315 136.164 73.4767C136.446 73.2158 136.401 72.6028 136.506 72.1541C136.087 72.0705 135.661 72.0199 135.233 72.0028C135.062 72.0028 134.894 72.2637 134.725 72.3941L134.091 72.9054Z" fill="#E10700"/>
<path d="M127.573 72.6104L129.786 70.5078C131.962 71.473 133.138 74.1052 131.746 76.0721C132.37 72.1435 129.168 73.4374 127.573 72.6104Z" fill="#E10700"/>
<path d="M126.274 85.5392C125.046 86.1887 124.098 86.7601 123.088 87.1827C122.786 87.3079 122.204 87.1122 121.938 86.8644C121.778 86.7157 121.87 86.1079 122.049 85.8392C122.442 85.2224 122.926 84.6675 123.485 84.1931C123.701 84.0157 124.275 84.1018 124.601 84.2635C125.093 84.5113 125.498 84.9287 126.274 85.5392Z" fill="#E10700"/>
<path d="M120.26 81.3262L122.228 83.0348C121.561 83.3819 120.872 83.686 120.165 83.9453C119.994 84 119.441 83.5487 119.473 83.4235C119.692 82.7094 119.955 82.009 120.26 81.3262Z" fill="#E10700"/>
<path d="M119.17 76.2626C118.447 74.7365 118.96 73.7478 120.749 73.0616C121.322 74.7104 119.665 75.1096 119.17 76.2626Z" fill="#E10700"/>
<path d="M77.7043 65.7001C77.4412 65.4888 76.915 65.254 76.8229 64.9174C76.7735 64.6826 76.7767 64.44 76.8322 64.2065C76.8876 63.973 76.994 63.7544 77.1439 63.5661C78.1241 62.5967 79.1798 61.7053 80.3011 60.9001C80.6537 60.6548 81.4693 60.6392 81.7824 60.8714C82.0954 61.1035 82.2796 62.074 82.077 62.2748C80.8799 63.4435 79.5565 64.4844 78.27 65.5618C78.1937 65.6218 78.0358 65.6166 77.7043 65.7001Z" fill="white"/>
</svg>
