<svg width="180" height="180" viewBox="0 0 180 180" fill="none" xmlns="http://www.w3.org/2000/svg">
<circle cx="90" cy="90" r="90" fill="#E10700"/>
<path fill-rule="evenodd" clip-rule="evenodd" d="M52.3144 42.4375C51.2364 42.9472 50.6855 43.4945 50.2862 44.4525C49.5212 46.2875 50.347 48.6264 52.0803 49.5341L52.587 49.7993L52.6359 87.6165L52.6848 125.434L53.1894 126.919C55.3385 133.243 61.3569 137.391 67.7738 136.971C70.0468 136.822 71.3683 136.466 73.4257 135.449C76.265 134.045 78.4982 131.807 79.8986 128.961C81.5257 125.654 81.3673 129.82 81.4768 87.4409L81.574 49.8194L82.356 49.2516C83.4334 48.4692 83.9646 47.3918 83.9653 45.9872C83.9662 44.3285 83.1353 43.0629 81.574 42.3451C80.8768 42.0245 80.0242 42.0043 67.0368 42.0022L53.2403 42L52.3144 42.4375ZM98.426 42.3451C97.0182 42.9923 96.1669 44.1618 95.9854 45.6974C95.8369 46.9547 96.523 48.4376 97.6229 49.2361L98.426 49.8194L98.5232 87.4409C98.6327 129.82 98.4744 125.654 100.101 128.961C101.502 131.807 103.735 134.045 106.574 135.449C108.632 136.466 109.953 136.822 112.226 136.971C118.643 137.391 124.661 133.243 126.811 126.919L127.315 125.434L127.364 87.6165L127.413 49.7993L127.92 49.5341C129.653 48.6264 130.479 46.2875 129.714 44.4525C129.314 43.4945 128.764 42.9472 127.686 42.4375L126.76 42L112.963 42.0022C99.9758 42.0043 99.1232 42.0245 98.426 42.3451ZM73.4257 64.2711V78.4712L66.9905 78.5201L60.5552 78.5689V75.0396V71.5104H63.304C65.8233 71.5104 66.1207 71.4744 66.8688 71.0788C68.9768 69.9641 69.0964 66.9483 67.0873 65.5673C66.4549 65.1325 66.251 65.1028 63.486 65.0436L60.5552 64.9809V57.4771V49.9733L66.9905 50.0221L73.4257 50.0709V64.2711ZM119.445 86.4439C119.445 112.23 119.385 123.198 119.241 123.893C118.765 126.192 116.815 128.211 114.537 128.764C113.478 129.021 111.747 128.893 110.629 128.474C109.15 127.919 107.629 126.398 107.03 124.876C106.603 123.79 106.593 123.619 106.584 117.823L106.574 111.883L109.089 111.791C111.491 111.702 111.635 111.674 112.284 111.178C114.254 109.67 114.007 106.894 111.8 105.724C111.359 105.49 110.589 105.388 108.843 105.329L106.482 105.25V101.856V98.4621L108.935 98.3975C111.109 98.3404 111.467 98.2841 112.074 97.906C114.262 96.5422 114.091 93.3358 111.774 92.2809C111.172 92.0069 110.557 91.9362 108.746 91.933L106.474 91.9289L106.524 88.4485L106.574 84.9681L109.074 84.8751C111.74 84.7757 112.074 84.6768 112.846 83.7572C113.858 82.5516 113.858 80.8877 112.846 79.6821C112.073 78.7617 111.74 78.663 109.074 78.5641L106.574 78.4712L106.524 74.9908L106.474 71.5104L108.746 71.5063C110.557 71.5031 111.172 71.4324 111.774 71.1584C114.091 70.1035 114.262 66.8971 112.074 65.5333C111.467 65.1552 111.109 65.099 108.935 65.0418L106.482 64.9772V57.6014C106.482 53.5447 106.537 50.1698 106.605 50.1019C106.673 50.0338 109.59 49.9781 113.087 49.9781H119.445V86.4439Z" fill="white"/>
</svg>
