<svg width="267" height="50" viewBox="0 0 267 50" fill="none" xmlns="http://www.w3.org/2000/svg">
<path d="M26.7246 3.56402C24.6444 6.46276 22.5617 9.36151 20.4742 12.2781H26.7246V21.311C26.7246 29.6237 22.8592 34.8593 13.4703 34.8593C4.08139 34.8593 0 29.6237 0 21.311V0.883789H9.49447V22.3278C9.49447 25.202 10.4326 27.2557 13.4703 27.2557C16.5079 27.2557 17.5493 25.202 17.5493 22.3278V0.883789H26.7174L26.7246 3.56402Z" fill="#D55955"/>
<path d="M46.0279 0.883789H32.5528V3.3009C33.223 4.23593 33.8941 5.17096 34.5659 6.10599C35.5353 7.45725 36.5046 8.81 37.474 10.1642C37.9395 10.8109 38.4026 11.4575 38.8705 12.1042C38.9082 12.1532 38.949 12.2001 38.9928 12.2446V12.2781H32.5552V21.3133C32.5552 21.5742 32.5552 21.8306 32.5552 22.0848C32.4928 29.9493 31.3147 34.8638 22.2209 34.8638H42.0545V23.6657H46.0303C53.5404 23.6657 60.3884 20.1225 60.3884 11.9637C60.386 3.55287 53.7588 0.883789 46.0279 0.883789ZM45.5864 16.6909H42.0521V7.86531H45.5864C49.1207 7.86531 51.105 8.99359 51.105 11.9704C51.105 14.9472 49.3415 16.6909 45.5864 16.6909Z" fill="#D55955"/>
<path d="M3.11677 41.7004V47.79H8.46986V41.7004H10.3414V47.4266C10.3414 48.1134 10.2038 48.5809 9.9287 48.8291C9.65357 49.0774 9.12409 49.2015 8.34029 49.2015H3.23914C2.46014 49.2015 1.93146 49.0774 1.65313 48.8291C1.3748 48.5816 1.23804 48.1134 1.23804 47.4266V41.7004H3.11677Z" fill="#495294"/>
<path d="M15.2411 49.2015V41.7004H16.532L22.2138 46.1221C22.4081 46.2693 22.5785 46.4053 22.7273 46.5369C22.8703 46.6629 23.0049 46.7969 23.1304 46.9382C23.1016 46.5168 23.08 46.218 23.0704 46.0463C23.0608 45.8746 23.0536 45.7341 23.0536 45.6405V41.7004H24.7332V49.2015H23.4495L17.5229 44.568C17.379 44.4476 17.2542 44.345 17.1486 44.2469C17.0439 44.1553 16.9446 44.0585 16.8511 43.957C16.8751 44.18 16.8943 44.403 16.9063 44.6126C16.9183 44.8222 16.9279 44.9983 16.9279 45.1477V49.2015H15.2411Z" fill="#495294"/>
<path d="M29.6351 49.2015V41.7004H31.5139V49.2015H29.6351Z" fill="#495294"/>
<path d="M36.2527 43.4731C36.2527 42.7908 36.3903 42.3248 36.6654 42.075C36.9405 41.8253 37.47 41.7004 38.2538 41.7004H44.1947C44.9785 41.7004 45.5088 41.8253 45.7855 42.075C46.0623 42.3248 46.199 42.7908 46.1958 43.4731V47.4266C46.1958 48.1134 46.0591 48.5809 45.7855 48.8291C45.512 49.0774 44.9817 49.2015 44.1947 49.2015H38.2538C37.47 49.2015 36.9405 49.0774 36.6654 48.8291C36.3903 48.5809 36.2527 48.1134 36.2527 47.4266V43.4731ZM38.1266 47.79H44.3219V43.0406H38.1266V47.79Z" fill="#495294"/>
<path d="M50.9203 49.2015V41.7004H52.204L57.8858 46.1221C58.0801 46.2693 58.2505 46.4053 58.3992 46.5369C58.5423 46.6629 58.6769 46.7969 58.8023 46.9382C58.7735 46.5168 58.7519 46.218 58.7423 46.0463C58.7327 45.8746 58.7279 45.7341 58.7279 45.6405V41.7004H60.4075V49.2015H59.1239L53.1973 44.568C53.0558 44.4476 52.931 44.345 52.823 44.2469C52.7175 44.1553 52.6174 44.0586 52.5231 43.957C52.5471 44.1889 52.5663 44.4074 52.5807 44.6126C52.5927 44.8177 52.5999 44.9983 52.5999 45.1477V49.2015H50.9203Z" fill="#495294"/>
<path d="M81.3136 49.1904H83.3219V0.879475H81.3136V49.1904Z" fill="#D55955"/>
<path d="M94.3879 24.2122V0.888428H119.771V4.9712H100.231V11.1054H110.788V15.3643H100.231V24.2122H94.3879Z" fill="#495294"/>
<path d="M126.492 6.40497C126.492 4.28665 126.919 2.83728 127.773 2.05685C128.628 1.27642 130.274 0.886945 132.711 0.888432H151.187C153.625 0.888432 155.271 1.2779 156.127 2.05685C156.983 2.83579 157.41 4.28517 157.408 6.40497V18.6956C157.408 20.8288 156.981 22.2819 156.127 23.0549C155.273 23.8279 153.626 24.2137 151.187 24.2122H132.711C130.274 24.2122 128.628 23.8264 127.773 23.0549C126.919 22.2834 126.492 20.8303 126.492 18.6956V6.40497ZM132.332 19.8217H151.59V5.05817H132.332V19.8217Z" fill="#495294"/>
<path d="M164.055 24.2122L178.252 0.888428H183.879L198.275 24.2122H191.722L188.706 19.1148H172.798L169.876 24.2122H164.055ZM175.286 14.9005H186.281L180.865 5.4127L175.286 14.9005Z" fill="#495294"/>
<path d="M94.2728 49.1952V39.8657H104.427V41.5046H96.6195V43.9574H100.845V45.661H96.6195V49.1997L94.2728 49.1952Z" fill="#495294"/>
<path d="M106.846 49.1952V39.8657H115.433C116.233 39.8657 116.81 40.0084 117.166 40.2938C117.521 40.5793 117.7 41.0401 117.703 41.6763V43.866C117.703 44.4948 117.524 44.9534 117.166 45.2418C116.807 45.5302 116.23 45.6744 115.433 45.6744H114.121L118.747 49.1952H115.388L111.359 45.6744H109.149V49.1952H106.846ZM114.397 41.4823H109.149V44.0778H114.401C114.691 44.1035 114.981 44.0459 115.234 43.9128C115.316 43.8386 115.379 43.7481 115.417 43.648C115.456 43.5479 115.47 43.441 115.457 43.3353V42.2204C115.469 42.1161 115.455 42.0107 115.416 41.9122C115.377 41.8137 115.315 41.7246 115.234 41.6518C114.98 41.5164 114.688 41.4572 114.397 41.4823Z" fill="#495294"/>
<path d="M121.955 49.1952V39.8657H124.292V49.1952H121.955Z" fill="#495294"/>
<path d="M128.935 49.1952V39.8657H139.211V41.4556H131.272V43.5382H135.905V45.1281H131.272V47.4404H139.305V49.1952H128.935Z" fill="#495294"/>
<path d="M143.113 49.1949V39.8654H144.708L151.775 45.3641C152.015 45.5469 152.228 45.7208 152.411 45.8814C152.59 46.0378 152.758 46.2047 152.914 46.3809C152.876 45.8569 152.852 45.4889 152.838 45.266C152.823 45.043 152.821 44.8802 152.821 44.762V39.8564H154.918V49.186H153.322L145.954 43.4241C145.776 43.277 145.62 43.1432 145.488 43.025C145.357 42.9113 145.233 42.7907 145.116 42.6638C145.148 42.9611 145.172 43.2331 145.188 43.4799C145.205 43.7363 145.212 43.9593 145.212 44.1488V49.1882L143.113 49.1949Z" fill="#495294"/>
<path d="M159.551 49.1952V39.8657H166.015C167.858 39.8657 169.274 40.2663 170.265 41.0676C171.255 41.8688 171.751 43.0046 171.752 44.4747C171.765 45.2909 171.566 46.0979 171.172 46.8272C170.802 47.5061 170.236 48.0759 169.538 48.4728C169.036 48.7477 168.485 48.9345 167.911 49.0235C167.087 49.1515 166.253 49.209 165.418 49.1952H159.551ZM161.888 47.4404H164.909C166.517 47.4404 167.656 47.2077 168.328 46.7425C169 46.2772 169.335 45.5094 169.334 44.4391C169.334 43.4847 169.055 42.7622 168.499 42.2717C167.942 41.7811 167.119 41.5359 166.03 41.5359H161.888V47.4404Z" fill="#495294"/>
<path d="M182.382 42.0732C182.382 41.2259 182.552 40.6462 182.893 40.334C183.236 40.0218 183.893 39.8657 184.87 39.8657H192.258C193.234 39.8657 193.892 40.0218 194.235 40.334C194.578 40.6462 194.746 41.2259 194.746 42.0732V46.99C194.746 47.844 194.575 48.4237 194.235 48.7337C193.894 49.0436 193.234 49.1952 192.258 49.1952H184.87C183.893 49.1952 183.236 49.0414 182.893 48.7337C182.55 48.426 182.382 47.8417 182.382 46.99V42.0732ZM184.716 47.4404H192.421V41.5359H184.716V47.4404Z" fill="#495294"/>
<path d="M199.18 49.1952V39.8657H209.334V41.5046H201.527V43.9574H205.752V45.661H201.527V49.1997L199.18 49.1952Z" fill="#495294"/>
<path d="M216.883 49.1952L222.562 39.8657H224.801L230.559 49.1952H227.939L226.739 47.1572H220.376L219.208 49.1952H216.883ZM221.374 45.4715H225.761L223.601 41.6808L221.374 45.4715Z" fill="#495294"/>
<path d="M241.659 41.5047H235.085V43.5116H241.357C242.337 43.5116 243 43.6677 243.346 43.9798C243.691 44.292 243.864 44.8718 243.864 45.7191V46.999C243.864 47.8463 243.691 48.4261 243.346 48.7382C243 49.0504 242.338 49.2043 241.357 49.2043H235.142C234.161 49.2043 233.499 49.0504 233.153 48.7382C232.808 48.4261 232.635 47.8463 232.635 46.999V46.7426L234.696 46.3457V47.4494H241.791V45.3222H235.531C234.557 45.3222 233.899 45.1661 233.556 44.8539C233.216 44.5417 233.043 43.962 233.043 43.1147V42.0823C233.043 41.2349 233.216 40.6552 233.556 40.343C233.897 40.0308 234.557 39.8748 235.531 39.8748H241.232C242.175 39.8748 242.825 40.0264 243.183 40.3207C243.54 40.6151 243.72 41.1547 243.72 41.9195V42.1135L241.659 42.5594V41.5047Z" fill="#495294"/>
<path d="M248.209 49.1952V39.8657H250.547V49.1952H248.209Z" fill="#495294"/>
<path d="M253.27 49.1952L258.949 39.8657H261.2L266.958 49.1952H264.338L263.139 47.1572H256.775L255.607 49.1952H253.27ZM257.764 45.4715H262.16L260 41.6808L257.764 45.4715Z" fill="#495294"/>
</svg>
