<svg width="40" height="40" viewBox="0 0 40 40" fill="none" xmlns="http://www.w3.org/2000/svg">
<path d="M36.8421 26.3369C34.3747 26.3369 31.9579 25.9516 29.6674 25.1958C28.5495 24.8105 27.28 25.1074 26.5453 25.8569L22.0042 29.2863C16.7937 26.5053 13.459 23.1726 10.7158 18L14.0526 13.5663C14.8926 12.7263 15.1937 11.4968 14.8337 10.3453C14.0716 8.04001 13.6843 5.62106 13.6843 3.1579C13.6843 1.41681 12.2674 0 10.5264 0H3.1579C1.41681 0 0 1.41681 0 3.1579C0 23.4716 16.5284 40 36.8421 40C38.5832 40 40 38.5832 40 36.8421V29.4948C40 27.7537 38.5832 26.3369 36.8421 26.3369Z" fill="#2B2829"/>
</svg>
