<svg width="52" height="52" viewBox="0 0 52 52" fill="none" xmlns="http://www.w3.org/2000/svg">
<path d="M47.8947 34.2379C44.6871 34.2379 41.5453 33.7371 38.5676 32.7545C37.1143 32.2537 35.464 32.6396 34.5089 33.6139L28.6055 38.0722C21.8318 34.4569 17.4966 30.1244 13.9306 23.4L18.2684 17.6362C19.3604 16.5442 19.7518 14.9459 19.2838 13.4489C18.2931 10.452 17.7895 7.30737 17.7895 4.10527C17.7895 1.84185 15.9477 0 13.6843 0H4.10527C1.84185 0 0 1.84185 0 4.10527C0 30.513 21.487 52 47.8947 52C50.1581 52 52 50.1581 52 47.8947V38.3432C52 36.0798 50.1581 34.2379 47.8947 34.2379Z" fill="#E10700"/>
</svg>
