<svg width="25" height="25" viewBox="0 0 25 25" fill="none" xmlns="http://www.w3.org/2000/svg">
<path d="M25 0H0V25H25V0Z" fill="#1BD741"/>
<path d="M3.75732 21.2521L4.9819 16.9028C4.19442 15.565 3.77982 14.0429 3.77982 12.4792C3.77982 7.66473 7.69671 3.74783 12.5112 3.74783C17.3257 3.74783 21.2426 7.66473 21.2426 12.4792C21.2426 17.2938 17.3257 21.2107 12.5112 21.2107C11.0111 21.2107 9.5421 20.8267 8.24259 20.0975L3.75732 21.2521ZM8.47189 18.509L8.73916 18.6722C9.87217 19.3639 11.1766 19.7295 12.5112 19.7295C16.509 19.7295 19.7614 16.4771 19.7614 12.4792C19.7614 8.48144 16.509 5.22897 12.5112 5.22897C8.51342 5.22897 5.26095 8.48144 5.26095 12.4792C5.26095 13.8722 5.65685 15.2249 6.40576 16.3911L6.58575 16.6714L5.88056 19.1761L8.47189 18.509Z" fill="white"/>
<path d="M10.0584 8.41529L9.49186 8.3844C9.3139 8.37469 9.13935 8.43416 9.00484 8.551C8.73017 8.78952 8.29098 9.25065 8.15609 9.85155C7.95493 10.7475 8.26581 11.8447 9.07039 12.9418C9.87498 14.0389 11.3744 15.7944 14.0258 16.5441C14.8802 16.7857 15.5523 16.6228 16.0708 16.2911C16.4816 16.0284 16.7647 15.6067 16.8667 15.13L16.9572 14.7075C16.9859 14.5732 16.9177 14.4369 16.793 14.3794L14.8782 13.4968C14.7539 13.4396 14.6065 13.4758 14.5229 13.5841L13.7712 14.5586C13.7144 14.6322 13.6172 14.6614 13.5294 14.6306C13.0147 14.4497 11.2903 13.7275 10.3441 11.9049C10.3031 11.8259 10.3133 11.7299 10.3715 11.6625L11.0899 10.8314C11.1633 10.7465 11.1818 10.6272 11.1377 10.5241L10.3124 8.59308C10.2684 8.49028 10.1699 8.42138 10.0584 8.41529Z" fill="white"/>
</svg>
